<?xml version="1.0" encoding="utf-8"?>
<!-- Generator: Adobe Illustrator 17.0.0, SVG Export Plug-In . SVG Version: 6.00 Build 0)  -->
<!DOCTYPE svg PUBLIC "-//W3C//DTD SVG 1.1//EN" "http://www.w3.org/Graphics/SVG/1.1/DTD/svg11.dtd">
<svg version="1.1" id="Layer_1" xmlns="http://www.w3.org/2000/svg" xmlns:xlink="http://www.w3.org/1999/xlink" x="0px" y="0px"
	 width="126.8px" height="118.346px" viewBox="0 0 126.8 118.346" enable-background="new 0 0 126.8 118.346" xml:space="preserve">
<g>
	<path fill="#FFFFFF" d="M122.612,111.819h-3.939v-49.9h3.939c0.653,0,1.254-0.357,1.569-0.929c0.315-0.574,0.292-1.272-0.058-1.823
		l-13.371-21.011c-0.329-0.517-0.899-0.829-1.511-0.829H73.692l-8.502-8.501v-7.018H82.5c0.661,0,1.268-0.364,1.58-0.945
		c0.311-0.582,0.278-1.289-0.09-1.838l-3.157-4.737l3.158-4.737c0.366-0.549,0.4-1.257,0.088-1.838
		c-0.311-0.582-0.919-0.945-1.58-0.945H65.19v-2.03c0-0.988-0.801-1.791-1.791-1.791c-0.988,0-1.791,0.802-1.791,1.791v24.089
		l-8.501,8.501H17.559c-0.612,0-1.182,0.312-1.511,0.83l-13.37,21.01c-0.351,0.552-0.373,1.25-0.06,1.823
		c0.315,0.572,0.917,0.929,1.57,0.929h3.939v49.9H4.188c-0.988,0-1.791,0.802-1.791,1.791c0,0.988,0.802,1.791,1.791,1.791h118.424
		c0.988,0,1.791-0.802,1.791-1.791C124.403,112.621,123.601,111.819,122.612,111.819L122.612,111.819z M108.259,40.908l11.091,17.43
		H94.703l-17.429-17.43H108.259z M79.154,10.347l-1.965,2.946c-0.401,0.602-0.401,1.385,0,1.986l1.965,2.946H65.19v-7.878H79.154z
		 M18.541,40.908h30.985l-17.429,17.43H7.45L18.541,40.908z M11.708,61.919h21.13c0.058,0,0.118-0.004,0.177-0.01
		c0.026-0.002,0.05-0.007,0.076-0.01c0.033-0.004,0.065-0.009,0.098-0.015c0.029-0.006,0.057-0.014,0.085-0.021
		c0.028-0.007,0.057-0.014,0.084-0.022c0.028-0.008,0.056-0.019,0.084-0.029c0.027-0.009,0.055-0.019,0.082-0.03
		c0.027-0.011,0.051-0.023,0.077-0.035c0.027-0.013,0.055-0.025,0.081-0.039c0.024-0.013,0.048-0.028,0.072-0.042
		c0.026-0.016,0.053-0.031,0.078-0.048c0.027-0.019,0.051-0.038,0.077-0.057c0.021-0.016,0.043-0.03,0.063-0.048
		c0.047-0.037,0.09-0.077,0.132-0.119l29.294-29.294l29.296,29.294c0.041,0.042,0.085,0.081,0.13,0.119
		c0.021,0.018,0.042,0.032,0.063,0.048c0.026,0.019,0.051,0.04,0.078,0.057c0.026,0.016,0.051,0.031,0.078,0.047
		c0.024,0.015,0.048,0.03,0.073,0.043c0.027,0.014,0.053,0.027,0.081,0.039c0.026,0.012,0.051,0.024,0.077,0.036
		c0.027,0.01,0.054,0.02,0.08,0.029c0.028,0.01,0.056,0.021,0.085,0.029c0.027,0.009,0.055,0.015,0.081,0.022
		c0.029,0.007,0.058,0.015,0.087,0.021c0.031,0.006,0.064,0.011,0.096,0.014c0.026,0.005,0.051,0.01,0.078,0.012
		c0.058,0.006,0.118,0.01,0.177,0.01h21.13v49.9h-38.44V86.868c0-3.094-2.517-5.611-5.611-5.611H55.76
		c-3.094,0-5.611,2.517-5.611,5.611v24.951h-38.44V61.919z M73.07,88.898H53.73v-2.03c0-1.119,0.911-2.03,2.03-2.03h15.28
		c1.119,0,2.03,0.911,2.03,2.03V88.898z M53.73,92.48h7.878v19.34H53.73V92.48z M65.19,92.48h7.88v19.34h-7.88V92.48z M65.19,92.48"
		/>
	<path fill="#FFFFFF" d="M63.399,75.288c7.307,0,13.252-5.944,13.252-13.25s-5.944-13.25-13.252-13.25
		c-7.306,0-13.25,5.944-13.25,13.25S56.093,75.288,63.399,75.288L63.399,75.288z M63.399,52.369c5.333,0,9.671,4.337,9.671,9.669
		s-4.338,9.669-9.671,9.669c-5.331,0-9.669-4.337-9.669-9.669S58.068,52.369,63.399,52.369L63.399,52.369z M63.399,52.369"/>
	<path fill="#FFFFFF" d="M63.399,63.829c0.99,0,1.791-0.802,1.791-1.791v-5.73c0-0.989-0.801-1.791-1.791-1.791
		c-0.988,0-1.791,0.802-1.791,1.791v3.939h-3.939c-0.988,0-1.791,0.802-1.791,1.791c0,0.989,0.802,1.791,1.791,1.791H63.399z
		 M63.399,63.829"/>
	<path fill="#FFFFFF" d="M44.299,90.808h-9.55c-0.988,0-1.791,0.802-1.791,1.791v11.461c0,0.988,0.802,1.791,1.791,1.791h9.55
		c0.99,0,1.791-0.802,1.791-1.791V92.598C46.089,91.61,45.289,90.808,44.299,90.808L44.299,90.808z M42.508,94.389v2.15h-5.969
		v-2.15H42.508z M36.539,102.269v-2.149h5.969v2.149H36.539z M36.539,102.269"/>
	<path fill="#FFFFFF" d="M27.109,90.808h-9.55c-0.989,0-1.791,0.802-1.791,1.791v11.461c0,0.988,0.802,1.791,1.791,1.791h9.55
		c0.988,0,1.791-0.802,1.791-1.791V92.598C28.9,91.61,28.097,90.808,27.109,90.808L27.109,90.808z M25.318,94.389v2.15h-5.969v-2.15
		H25.318z M19.349,102.269v-2.149h5.969v2.149H19.349z M19.349,102.269"/>
	<path fill="#FFFFFF" d="M43.702,67.888h-8.357c-1.316,0-2.388,1.07-2.388,2.388v12.772c0,0.99,0.802,1.791,1.791,1.791h9.55
		c0.99,0,1.791-0.801,1.791-1.791V70.276C46.089,68.958,45.019,67.888,43.702,67.888L43.702,67.888z M42.508,71.469v4.058h-5.969
		v-4.058H42.508z M36.539,81.257v-2.149h5.969v2.149H36.539z M36.539,81.257"/>
	<path fill="#FFFFFF" d="M26.512,67.888h-8.357c-1.316,0-2.388,1.07-2.388,2.388v12.772c0,0.99,0.802,1.791,1.791,1.791h9.55
		c0.988,0,1.791-0.801,1.791-1.791V70.276C28.9,68.958,27.828,67.888,26.512,67.888L26.512,67.888z M25.318,71.469v4.058h-5.969
		v-4.058H25.318z M19.349,81.257v-2.149h5.969v2.149H19.349z M19.349,81.257"/>
	<path fill="#FFFFFF" d="M99.691,105.85h9.55c0.988,0,1.791-0.802,1.791-1.791V92.598c0-0.988-0.802-1.791-1.791-1.791h-9.55
		c-0.988,0-1.791,0.802-1.791,1.791v11.461C97.9,105.048,98.703,105.85,99.691,105.85L99.691,105.85z M101.482,102.269v-2.149h5.969
		v2.149H101.482z M107.451,94.389v2.15h-5.969v-2.15H107.451z M107.451,94.389"/>
	<path fill="#FFFFFF" d="M82.5,105.85h9.55c0.99,0,1.791-0.802,1.791-1.791V92.598c0-0.988-0.801-1.791-1.791-1.791H82.5
		c-0.988,0-1.791,0.802-1.791,1.791v11.461C80.709,105.048,81.511,105.85,82.5,105.85L82.5,105.85z M84.291,102.269v-2.149h5.969
		v2.149H84.291z M90.26,94.389v2.15h-5.969v-2.15H90.26z M90.26,94.389"/>
	<path fill="#FFFFFF" d="M99.691,84.839h9.55c0.988,0,1.791-0.801,1.791-1.791V70.276c0-1.317-1.071-2.388-2.388-2.388h-8.357
		c-1.316,0-2.388,1.07-2.388,2.388v12.772C97.9,84.038,98.703,84.839,99.691,84.839L99.691,84.839z M101.482,81.257v-2.149h5.969
		v2.149H101.482z M107.451,71.469v4.058h-5.969v-4.058H107.451z M107.451,71.469"/>
	<path fill="#FFFFFF" d="M82.5,84.839h9.55c0.99,0,1.791-0.801,1.791-1.791V70.276c0-1.317-1.07-2.388-2.388-2.388h-8.357
		c-1.316,0-2.388,1.07-2.388,2.388v12.772C80.709,84.038,81.511,84.839,82.5,84.839L82.5,84.839z M84.291,81.257v-2.149h5.969v2.149
		H84.291z M90.26,71.469v4.058h-5.969v-4.058H90.26z M90.26,71.469"/>
</g>
</svg>
