<?xml version="1.0" encoding="utf-8"?>
<!-- Generator: Adobe Illustrator 17.0.0, SVG Export Plug-In . SVG Version: 6.00 Build 0)  -->
<!DOCTYPE svg PUBLIC "-//W3C//DTD SVG 1.1//EN" "http://www.w3.org/Graphics/SVG/1.1/DTD/svg11.dtd">
<svg version="1.1" id="Layer_1" xmlns="http://www.w3.org/2000/svg" xmlns:xlink="http://www.w3.org/1999/xlink" x="0px" y="0px"
	 width="126.8px" height="118.346px" viewBox="0 0 126.8 118.346" enable-background="new 0 0 126.8 118.346" xml:space="preserve">
<g>
	<path fill="#FFFFFF" d="M89.271,105.729c-1.133-0.287-2.279,0.406-2.561,1.537l-2.113,8.453c-0.285,1.135,0.405,2.281,1.538,2.564
		c0.171,0.045,0.345,0.064,0.514,0.064c0.947,0,1.807-0.641,2.047-1.6l2.114-8.454C91.093,107.159,90.404,106.013,89.271,105.729
		L89.271,105.729z M89.271,105.729"/>
	<path fill="#FFFFFF" d="M63.4,63.398c0.275,0,0.549-0.052,0.806-0.159l23.247-9.62c1.079-0.446,1.59-1.683,1.144-2.761
		c-0.446-1.08-1.687-1.587-2.762-1.145L63.4,58.999L4.226,34.514v-0.701c0-1.167-0.947-2.114-2.112-2.114
		C0.947,31.699,0,32.646,0,33.813v2.112c0,0.856,0.515,1.628,1.306,1.953l61.286,25.36C62.85,63.346,63.125,63.398,63.4,63.398
		L63.4,63.398z M63.4,63.398"/>
	<path fill="#FFFFFF" d="M88.54,85.05c-0.516-1.046-1.78-1.478-2.83-0.959c-4.014,1.984-10.718,4.292-20.197,4.606V69.739
		c0-1.166-0.947-2.112-2.114-2.112c-1.167,0-2.114,0.947-2.114,2.112v18.94C35.045,87.842,26.578,71.946,25.36,69.3V54.946
		c0-1.167-0.947-2.114-2.114-2.114c-1.166,0-2.112,0.947-2.112,2.114v14.793c0,0.268,0.051,0.536,0.15,0.786
		c0.367,0.915,9.362,22.46,42.116,22.46c11.448,0,19.47-2.776,24.183-5.105C88.631,87.362,89.06,86.096,88.54,85.05L88.54,85.05z
		 M88.54,85.05"/>
	<path fill="#FFFFFF" d="M95.099,107.779c-1.168,0-2.113,0.947-2.113,2.112v6.34c0,1.167,0.944,2.114,2.113,2.114
		c1.17,0,2.114-0.947,2.114-2.114v-6.34C97.213,108.726,96.269,107.779,95.099,107.779L95.099,107.779z M95.099,107.779"/>
	<path fill="#FFFFFF" d="M124.686,31.699c-1.168,0-2.114,0.947-2.114,2.114v0.697L97.213,44.948v-3.819l28.281-11.704
		c0.79-0.325,1.306-1.097,1.306-1.952c0-0.856-0.516-1.625-1.304-1.953l-61.29-25.36c-0.518-0.213-1.097-0.213-1.614,0L1.306,25.52
		C0.515,25.847,0,26.617,0,27.473c0,0.856,0.515,1.628,1.306,1.953l61.286,25.359c0.259,0.108,0.533,0.161,0.808,0.161
		s0.549-0.053,0.808-0.161l22.16-9.17c1.08-0.444,1.591-1.68,1.146-2.759c-0.446-1.079-1.683-1.588-2.761-1.144L63.4,50.545
		L7.64,27.473L63.4,4.399l55.76,23.074L94.896,37.513l-23.239-8.678c0.122-0.44,0.196-0.891,0.196-1.363
		c0-3.555-3.712-6.34-8.452-6.34c-4.74,0-8.453,2.785-8.453,6.34c0,3.554,3.712,6.34,8.453,6.34c2.115,0,4.002-0.578,5.469-1.507
		l24.117,9.004v52.064c-2.454,0.877-4.227,3.2-4.227,5.951c0,3.496,2.845,6.34,6.34,6.34c3.496,0,6.34-2.844,6.34-6.34
		c0-2.751-1.773-5.074-4.227-5.951V81.38c6.067-4.581,8.242-10.679,8.337-10.95c0.076-0.221,0.116-0.456,0.116-0.69V54.946
		c0-1.166-0.944-2.113-2.113-2.113c-1.17,0-2.114,0.947-2.114,2.113v14.403c-0.365,0.896-1.636,3.658-4.227,6.384V49.519
		l28.278-11.638c0.792-0.325,1.309-1.099,1.309-1.956v-2.112C126.8,32.646,125.854,31.699,124.686,31.699L124.686,31.699z
		 M63.4,29.586c-2.581,0-4.227-1.25-4.227-2.113c0-0.862,1.647-2.114,4.227-2.114s4.226,1.252,4.226,2.114
		C67.626,28.335,65.981,29.586,63.4,29.586L63.4,29.586z M95.099,101.439c-1.166,0-2.113-0.949-2.113-2.114
		c0-1.165,0.947-2.112,2.113-2.112c1.167,0,2.114,0.948,2.114,2.112C97.213,100.49,96.266,101.439,95.099,101.439L95.099,101.439z
		 M95.099,101.439"/>
	<path fill="#FFFFFF" d="M103.489,107.265c-0.283-1.131-1.433-1.822-2.561-1.537c-1.133,0.283-1.821,1.431-1.538,2.564l2.114,8.454
		c0.241,0.959,1.1,1.6,2.047,1.6c0.169,0,0.342-0.019,0.514-0.064c1.133-0.283,1.821-1.428,1.538-2.564L103.489,107.265z
		 M103.489,107.265"/>
</g>
</svg>
