<?xml version="1.0" encoding="utf-8"?>
<!-- Generator: Adobe Illustrator 17.0.0, SVG Export Plug-In . SVG Version: 6.00 Build 0)  -->
<!DOCTYPE svg PUBLIC "-//W3C//DTD SVG 1.1//EN" "http://www.w3.org/Graphics/SVG/1.1/DTD/svg11.dtd">
<svg version="1.1" id="Layer_1" xmlns="http://www.w3.org/2000/svg" xmlns:xlink="http://www.w3.org/1999/xlink" x="0px" y="0px"
	 width="76.686px" height="76.8px" viewBox="0 0 76.686 76.8" enable-background="new 0 0 76.686 76.8" xml:space="preserve">
<g>
	
		<ellipse fill="none" stroke="#FFFFFF" stroke-width="3.6284" stroke-miterlimit="10" cx="38.343" cy="38.4" rx="36.529" ry="36.586"/>
	<g>
		<path fill="#FFFFFF" d="M58.036,53.056V29.044h-4.353v-5.778H45.14v-3.914h-7.839v1.773h-5.726v5.917H25.6v-3.776h-7.021v29.791
			h-2.077v4.076h43.611v-4.076H58.036z M56.741,30.341v22.715h-3.058V30.341H56.741z M52.387,24.563v4.481v24.012H45.14v-5.299
			v-3.392V29.34v-3.392v-1.385H52.387z M38.596,47.756h5.248v5.299h-5.248V47.756z M38.596,27.245h5.248v0.797h-5.248V27.245z
			 M43.844,29.34v15.025h-5.248V29.34H43.844z M38.596,45.662h5.248v0.797h-5.248V45.662z M38.596,20.648h5.248v2.617v2.683h-5.248
			v-4.824V20.648z M32.87,22.422h4.43v3.526v3.392v15.025v3.392v5.299h-4.43V27.041V22.422z M31.575,53.056h-1.02V28.338h1.02
			V53.056z M27.914,53.056V28.338h1.345v24.717H27.914z M26.619,28.338v24.717h-1.02V28.338H26.619z M24.304,45.626h-4.43v-13.58
			h4.43V45.626z M24.304,24.563v2.478v3.707h-4.43v-6.186H24.304z M19.874,46.924h4.43v6.132h-4.43V46.924z M58.817,55.835h-41.02
			v-1.482h0.781h5.726H25.6h5.975h1.295h4.43h1.295h5.248h1.295h7.248h1.295h4.353h0.781V55.835z"/>
		<path fill="#FFFFFF" d="M50.09,36.082c1.892,0,3.431-1.541,3.431-3.436c0-1.895-1.539-3.436-3.431-3.436
			c-1.892,0-3.431,1.541-3.431,3.436C46.659,34.541,48.198,36.082,50.09,36.082z M50.09,30.672c1.087,0,1.971,0.886,1.971,1.974
			c0,1.089-0.884,1.974-1.971,1.974s-1.971-0.886-1.971-1.974C48.119,31.557,49.003,30.672,50.09,30.672z"/>
		<rect x="47.388" y="41.406" fill="#FFFFFF" width="5.402" height="1.462"/>
		<rect x="47.388" y="43.896" fill="#FFFFFF" width="5.402" height="1.462"/>
		<rect x="47.388" y="46.388" fill="#FFFFFF" width="5.402" height="1.462"/>
	</g>
</g>
</svg>
