<?xml version="1.0" encoding="utf-8"?>
<!-- Generator: Adobe Illustrator 17.0.0, SVG Export Plug-In . SVG Version: 6.00 Build 0)  -->
<!DOCTYPE svg PUBLIC "-//W3C//DTD SVG 1.1//EN" "http://www.w3.org/Graphics/SVG/1.1/DTD/svg11.dtd">
<svg version="1.1" id="Layer_1" xmlns="http://www.w3.org/2000/svg" xmlns:xlink="http://www.w3.org/1999/xlink" x="0px" y="0px"
	 width="76.686px" height="76.8px" viewBox="0 0 76.686 76.8" enable-background="new 0 0 76.686 76.8" xml:space="preserve">
<ellipse fill="none" stroke="#FFFFFF" stroke-width="3.6284" stroke-miterlimit="10" cx="38.343" cy="38.4" rx="36.529" ry="36.586"/>
<g>
	<path fill="#FFFFFF" d="M62.85,21.911H14.778c-0.551,0-0.997,0.447-0.997,0.999v30.966c0,0.552,0.447,0.999,0.997,0.999H62.85
		c0.551,0,0.997-0.447,0.997-0.999V22.91C63.847,22.359,63.4,21.911,62.85,21.911L62.85,21.911z M61.852,52.877H15.775V23.909
		h46.077V52.877z M61.852,52.877"/>
	<path fill="#FFFFFF" d="M18.748,39.247l19.548,11.887c0.159,0.097,0.338,0.145,0.518,0.145c0.179,0,0.358-0.048,0.518-0.145
		l19.547-11.887c0.298-0.181,0.48-0.505,0.48-0.854c0-0.349-0.182-0.673-0.48-0.854L39.331,25.652c-0.318-0.194-0.717-0.194-1.035,0
		L18.748,37.539c-0.298,0.181-0.48,0.505-0.48,0.854C18.268,38.743,18.45,39.066,18.748,39.247L18.748,39.247z M38.814,27.675
		l17.626,10.718L38.814,49.111L21.187,38.393L38.814,27.675z M38.814,27.675"/>
	<path fill="#FFFFFF" d="M45.695,41.57c0.015-0.028,0.028-0.058,0.039-0.087c0.422-0.945,0.659-1.99,0.659-3.09
		c0-4.186-3.401-7.592-7.58-7.592c-2.887,0-5.402,1.626-6.681,4.01c-0.02,0.034-0.038,0.069-0.054,0.105
		c-0.539,1.042-0.845,2.224-0.845,3.477c0,4.186,3.4,7.592,7.58,7.592C41.861,45.985,44.492,44.174,45.695,41.57L45.695,41.57z
		 M38.814,32.799c3.08,0,5.585,2.509,5.585,5.594c0,0.172-0.009,0.341-0.024,0.509c-1.132-1.242-2.575-2.323-4.207-3.134
		c-1.673-0.831-3.446-1.331-5.156-1.468C36.01,33.37,37.346,32.799,38.814,32.799L38.814,32.799z M33.228,38.393
		c0-0.752,0.15-1.469,0.42-2.125c1.799-0.082,3.778,0.367,5.633,1.289c1.815,0.902,3.347,2.176,4.372,3.622
		c-0.966,1.676-2.773,2.807-4.84,2.807C35.734,43.987,33.228,41.478,33.228,38.393L33.228,38.393z M33.228,38.393"/>
	<path fill="#FFFFFF" d="M36.021,39.093c0-0.263-0.107-0.52-0.292-0.706c-0.186-0.186-0.443-0.293-0.705-0.293
		c-0.262,0-0.52,0.107-0.705,0.293c-0.185,0.186-0.292,0.443-0.292,0.706c0,0.262,0.107,0.52,0.292,0.706
		c0.186,0.185,0.443,0.293,0.705,0.293c0.263,0,0.52-0.107,0.705-0.293C35.914,39.613,36.021,39.355,36.021,39.093L36.021,39.093z
		 M36.021,39.093"/>
	<path fill="#FFFFFF" d="M36.719,40.391c-0.262,0-0.52,0.107-0.705,0.293c-0.186,0.186-0.292,0.443-0.292,0.706
		c0,0.264,0.107,0.52,0.292,0.706c0.186,0.186,0.443,0.293,0.705,0.293s0.52-0.107,0.705-0.293c0.186-0.186,0.292-0.443,0.292-0.706
		s-0.107-0.52-0.292-0.706C37.239,40.498,36.982,40.391,36.719,40.391L36.719,40.391z M36.719,40.391"/>
	<path fill="#FFFFFF" d="M40.21,40.991c0.262,0,0.52-0.107,0.705-0.293c0.186-0.186,0.292-0.444,0.292-0.706
		c0-0.263-0.107-0.52-0.292-0.706c-0.186-0.186-0.443-0.293-0.705-0.293c-0.262,0-0.52,0.107-0.705,0.293
		c-0.186,0.186-0.292,0.443-0.292,0.706c0,0.262,0.107,0.52,0.292,0.706C39.69,40.884,39.947,40.991,40.21,40.991L40.21,40.991z
		 M40.21,40.991"/>
	<path fill="#FFFFFF" d="M41.007,35.696c0.263,0,0.52-0.107,0.705-0.293c0.186-0.186,0.292-0.443,0.292-0.706
		c0-0.262-0.107-0.52-0.292-0.706c-0.186-0.185-0.443-0.293-0.705-0.293c-0.262,0-0.52,0.107-0.705,0.293
		c-0.185,0.186-0.292,0.444-0.292,0.706c0,0.263,0.107,0.52,0.292,0.706C40.488,35.589,40.745,35.696,41.007,35.696L41.007,35.696z
		 M41.007,35.696"/>
	<path fill="#FFFFFF" d="M40.017,43.095c0.185-0.186,0.292-0.443,0.292-0.706s-0.107-0.52-0.292-0.706
		c-0.186-0.186-0.443-0.293-0.705-0.293c-0.263,0-0.52,0.107-0.705,0.293c-0.186,0.186-0.292,0.443-0.292,0.706
		s0.107,0.52,0.292,0.706c0.186,0.186,0.443,0.293,0.705,0.293C39.574,43.388,39.832,43.281,40.017,43.095L40.017,43.095z
		 M40.017,43.095"/>
</g>
</svg>
