<?xml version="1.0" encoding="utf-8"?>
<!-- Generator: Adobe Illustrator 17.0.0, SVG Export Plug-In . SVG Version: 6.00 Build 0)  -->
<!DOCTYPE svg PUBLIC "-//W3C//DTD SVG 1.1//EN" "http://www.w3.org/Graphics/SVG/1.1/DTD/svg11.dtd">
<svg version="1.1" id="Layer_1" xmlns="http://www.w3.org/2000/svg" xmlns:xlink="http://www.w3.org/1999/xlink" x="0px" y="0px"
	 width="76.686px" height="76.8px" viewBox="0 0 76.686 76.8" enable-background="new 0 0 76.686 76.8" xml:space="preserve">
<g>
	
		<ellipse fill="none" stroke="#FFFFFF" stroke-width="3.6284" stroke-miterlimit="10" cx="38.343" cy="38.4" rx="36.529" ry="36.586"/>
	<g>
		<path fill="#FFFFFF" d="M62.25,26.687l-21.116-7.779c-2.306-0.851-4.854-0.851-7.16,0l-19.781,7.657
			c-1.699,0.608-2.67,2.188-2.67,3.889s1.092,3.16,2.67,3.768l21.116,7.779c1.092,0.365,2.306,0.608,3.519,0.608
			s2.427-0.243,3.398-0.729l4.854-1.823c0.607-0.243,0.971-0.972,0.728-1.58s-0.971-0.972-1.578-0.729l-4.854,1.823
			c-1.578,0.608-3.398,0.608-5.218,0l-21.116-7.657c-0.971-0.365-1.092-1.215-1.092-1.459c0-0.243,0.121-1.215,1.092-1.58
			l19.781-7.536c1.699-0.608,3.641-0.729,5.461,0l21.116,7.779c0.728,0.122,1.092,0.608,1.092,1.337c0,0.729-0.485,1.337-1.214,1.58
			l-8.495,3.282l-12.864-5.226c-0.364-0.486-1.214-0.851-2.306-0.851l0,0l0,0c-1.335,0-2.427,0.608-2.427,1.215
			c0,0.608,0.971,1.094,2.184,1.215l14.199,5.713v15.072c-1.456,0.486-2.427,1.823-2.427,3.403c0,2.066,1.578,3.646,3.641,3.646
			c2.063,0,3.641-1.58,3.641-3.646c0-1.337-0.728-2.552-1.942-3.16c0.971-0.608,1.942-1.337,2.67-1.945
			c0.243-0.243,0.364-0.608,0.364-0.851v-9.724c0-0.729-0.485-1.215-1.214-1.215s-1.214,0.486-1.214,1.215v9.116
			c-0.364,0.365-0.728,0.608-1.214,0.851V37.505l8.131-3.039c1.699-0.608,2.791-2.188,2.791-3.889
			C64.92,28.754,63.828,27.295,62.25,26.687z M52.785,57.195c-0.728,0-1.214-0.486-1.214-1.215s0.485-1.215,1.214-1.215
			s1.214,0.486,1.214,1.215S53.513,57.195,52.785,57.195z"/>
		<path fill="#FFFFFF" d="M46.005,53.914c-2.427,0.608-4.854,0.851-7.039,0.851c-6.068,0-13.228-2.309-16.99-5.47v-9.116
			c0-0.729-0.485-1.215-1.214-1.215s-1.214,0.486-1.214,1.215v9.724c0,0.365,0.121,0.729,0.364,0.851
			c4.733,4.254,13.107,6.442,19.053,6.442c2.306,0,4.976-0.365,7.524-0.972c0.607-0.122,1.092-0.851,0.849-1.459
			C47.219,54.157,46.612,53.671,46.005,53.914z"/>
	</g>
</g>
</svg>
