<?xml version="1.0" encoding="utf-8"?>
<!-- Generator: Adobe Illustrator 17.0.0, SVG Export Plug-In . SVG Version: 6.00 Build 0)  -->
<!DOCTYPE svg PUBLIC "-//W3C//DTD SVG 1.1//EN" "http://www.w3.org/Graphics/SVG/1.1/DTD/svg11.dtd">
<svg version="1.1" id="Layer_1" xmlns="http://www.w3.org/2000/svg" xmlns:xlink="http://www.w3.org/1999/xlink" x="0px" y="0px"
	 width="76.686px" height="76.8px" viewBox="0 0 76.686 76.8" enable-background="new 0 0 76.686 76.8" xml:space="preserve">
<ellipse fill="none" stroke="#FFFFFF" stroke-width="3.6284" stroke-miterlimit="10" cx="38.343" cy="38.4" rx="36.529" ry="36.586"/>
<g>
	<path fill="#FFFFFF" d="M38.815,36.618h-7.74c-0.583,0-0.979,0.49-0.979,0.981v22.918c0,0.594,0.489,0.981,0.979,0.981h7.74
		c0.49,0,0.979-0.396,0.979-0.981V37.598C39.794,37.014,39.304,36.618,38.815,36.618L38.815,36.618z M37.835,59.535h-5.782V38.589
		h5.782V59.535z M37.835,59.535"/>
	<path fill="#FFFFFF" d="M23.522,39.966h-7.74c-0.584,0-0.979,0.49-0.979,0.981v19.579c0,0.594,0.49,0.981,0.979,0.981h7.74
		c0.49,0,0.979-0.396,0.979-0.981V40.947C24.502,40.352,24.012,39.966,23.522,39.966L23.522,39.966z M22.544,59.535h-5.782V41.928
		h5.782V59.535z M22.544,59.535"/>
	<path fill="#FFFFFF" d="M60.764,29.139l-9.699-13.477c-0.395-0.49-1.177-0.49-1.563,0l-9.699,13.477
		c-0.395,0.556-0.245,1.471,0.782,1.471h4.802v29.906c0,0.594,0.49,0.981,0.979,0.981h7.74c0.489,0,0.979-0.396,1.073-0.981V30.62
		h4.802C60.943,30.62,61.151,29.639,60.764,29.139L60.764,29.139z M54.098,28.649c-0.584,0-0.979,0.49-0.979,0.981v29.906h-5.876
		V29.63c0-0.595-0.49-0.981-0.979-0.981h-3.917l7.834-10.818l7.835,10.818H54.098z M54.098,28.649"/>
</g>
</svg>
