<?xml version="1.0" encoding="utf-8"?>
<!-- Generator: Adobe Illustrator 17.0.0, SVG Export Plug-In . SVG Version: 6.00 Build 0)  -->
<!DOCTYPE svg PUBLIC "-//W3C//DTD SVG 1.1//EN" "http://www.w3.org/Graphics/SVG/1.1/DTD/svg11.dtd">
<svg version="1.1" id="Layer_1" xmlns="http://www.w3.org/2000/svg" xmlns:xlink="http://www.w3.org/1999/xlink" x="0px" y="0px"
	 width="23.617px" height="23.651px" viewBox="0 0 23.617 23.651" enable-background="new 0 0 23.617 23.651" xml:space="preserve">
<g>
	<path fill="#FFFFFF" d="M18.675,14.651c-0.484-0.504-1.068-0.774-1.687-0.774c-0.614,0-1.203,0.264-1.707,0.769l-1.578,1.572
		c-0.13-0.07-0.26-0.135-0.384-0.2c-0.18-0.09-0.349-0.175-0.494-0.265c-1.478-0.938-2.82-2.162-4.108-3.744
		c-0.624-0.789-1.043-1.453-1.348-2.126C7.778,9.51,8.157,9.12,8.527,8.746c0.14-0.14,0.28-0.284,0.419-0.424
		c1.048-1.048,1.048-2.406,0-3.454L7.583,3.504C7.429,3.35,7.269,3.19,7.119,3.03c-0.3-0.31-0.614-0.629-0.938-0.929
		C5.696,1.623,5.117,1.368,4.508,1.368c-0.609,0-1.198,0.254-1.697,0.734l-0.01,0.01L1.104,3.824
		C0.465,4.463,0.101,5.242,0.021,6.145c-0.12,1.458,0.31,2.815,0.639,3.704c0.808,2.181,2.017,4.203,3.819,6.37
		c2.186,2.611,4.817,4.672,7.822,6.125c1.148,0.544,2.681,1.188,4.393,1.298c0.105,0.005,0.215,0.01,0.315,0.01
		c1.153,0,2.122-0.414,2.88-1.238c0.005-0.01,0.015-0.015,0.02-0.025c0.26-0.314,0.559-0.599,0.874-0.904
		c0.214-0.205,0.434-0.419,0.649-0.644c0.494-0.514,0.754-1.113,0.754-1.727c0-0.619-0.264-1.213-0.768-1.712L18.675,14.651z
		 M20.462,19.908C20.457,19.908,20.457,19.913,20.462,19.908c-0.195,0.21-0.394,0.4-0.609,0.609
		c-0.324,0.31-0.654,0.634-0.963,0.998c-0.504,0.539-1.098,0.794-1.877,0.794c-0.075,0-0.155,0-0.23-0.005
		c-1.482-0.095-2.86-0.674-3.894-1.168c-2.825-1.368-5.306-3.31-7.368-5.771c-1.702-2.052-2.84-3.949-3.594-5.985
		C1.463,8.137,1.294,7.168,1.369,6.255c0.05-0.584,0.274-1.068,0.689-1.483L3.76,3.07c0.244-0.23,0.504-0.354,0.759-0.354
		c0.314,0,0.569,0.19,0.729,0.349L5.262,3.08c0.305,0.285,0.594,0.579,0.899,0.894c0.155,0.16,0.314,0.32,0.474,0.484l1.363,1.363
		c0.529,0.529,0.529,1.018,0,1.547c-0.145,0.145-0.284,0.29-0.429,0.429C7.149,8.227,6.75,8.626,6.316,9.016
		c-0.01,0.01-0.02,0.015-0.025,0.025c-0.429,0.429-0.349,0.849-0.26,1.133l0.015,0.045C6.4,11.077,6.9,11.886,7.658,12.849
		l0.005,0.005c1.378,1.697,2.83,3.02,4.433,4.033c0.205,0.13,0.414,0.235,0.614,0.334c0.18,0.09,0.349,0.175,0.494,0.265
		c0.02,0.01,0.04,0.025,0.06,0.035c0.17,0.085,0.329,0.125,0.494,0.125c0.414,0,0.674-0.26,0.759-0.344l1.707-1.707
		c0.17-0.17,0.439-0.374,0.754-0.374c0.31,0,0.564,0.194,0.719,0.364l2.76,2.76C20.971,18.854,20.971,19.379,20.462,19.908
		L20.462,19.908z M20.462,19.908"/>
	<path fill="#FFFFFF" d="M12.765,5.626c1.308,0.22,2.496,0.839,3.444,1.787c0.948,0.948,1.562,2.136,1.787,3.444
		c0.055,0.33,0.339,0.559,0.664,0.559c0.04,0,0.075-0.005,0.115-0.01c0.369-0.06,0.614-0.409,0.554-0.779
		c-0.27-1.582-1.018-3.025-2.162-4.168c-1.143-1.143-2.586-1.892-4.168-2.162c-0.369-0.06-0.714,0.185-0.779,0.549
		C12.156,5.212,12.395,5.566,12.765,5.626L12.765,5.626z M12.765,5.626"/>
	<path fill="#FFFFFF" d="M23.607,10.433c-0.444-2.606-1.672-4.977-3.559-6.864c-1.887-1.887-4.258-3.115-6.864-3.559
		c-0.364-0.065-0.709,0.185-0.774,0.549c-0.06,0.369,0.185,0.714,0.554,0.779c2.326,0.394,4.448,1.498,6.135,3.18
		c1.687,1.687,2.785,3.809,3.18,6.135c0.055,0.329,0.339,0.559,0.664,0.559c0.04,0,0.075-0.005,0.115-0.01
		C23.422,11.147,23.672,10.797,23.607,10.433L23.607,10.433z M23.607,10.433"/>
</g>
</svg>
