<?xml version="1.0" encoding="utf-8"?>
<!-- Generator: Adobe Illustrator 17.0.0, SVG Export Plug-In . SVG Version: 6.00 Build 0)  -->
<!DOCTYPE svg PUBLIC "-//W3C//DTD SVG 1.1//EN" "http://www.w3.org/Graphics/SVG/1.1/DTD/svg11.dtd">
<svg version="1.1" id="Layer_1" xmlns="http://www.w3.org/2000/svg" xmlns:xlink="http://www.w3.org/1999/xlink" x="0px" y="0px"
	 width="19.597px" height="19.598px" viewBox="0 0 19.597 19.598" enable-background="new 0 0 19.597 19.598" xml:space="preserve">
<g>
	<path fill="#FFFFFF" d="M0,0v19.598h19.597V0H0z M18.385,18.385H1.212V1.212h17.173V18.385z"/>
	<g>
		<path fill="#FFFFFF" d="M12.501,3.535H6.887c-1.907,0-3.457,1.551-3.457,3.457v5.614c0,1.907,1.551,3.457,3.457,3.457h5.614
			c1.907,0,3.457-1.551,3.457-3.457V6.992C15.958,5.086,14.407,3.535,12.501,3.535L12.501,3.535z M14.846,12.606
			c0,1.294-1.052,2.346-2.346,2.346H6.887c-1.294,0-2.346-1.052-2.346-2.346V6.992c0-1.294,1.052-2.346,2.346-2.346h5.614
			c1.294,0,2.346,1.052,2.346,2.346V12.606z M14.846,12.606"/>
		<path fill="#FFFFFF" d="M9.694,6.571c-1.78,0-3.228,1.448-3.228,3.228c0,1.78,1.448,3.228,3.228,3.228
			c1.78,0,3.228-1.448,3.228-3.228C12.922,8.019,11.474,6.571,9.694,6.571L9.694,6.571z M9.694,11.915
			c-1.167,0-2.117-0.949-2.117-2.116c0-1.167,0.949-2.117,2.117-2.117s2.117,0.95,2.117,2.117
			C11.811,10.966,10.861,11.915,9.694,11.915L9.694,11.915z M9.694,11.915"/>
		<path fill="#FFFFFF" d="M13.057,5.628c-0.214,0-0.425,0.087-0.576,0.238c-0.152,0.151-0.24,0.362-0.24,0.577
			c0,0.214,0.088,0.424,0.24,0.576c0.151,0.151,0.361,0.239,0.576,0.239c0.215,0,0.424-0.087,0.576-0.239
			c0.152-0.152,0.239-0.363,0.239-0.576c0-0.215-0.087-0.426-0.239-0.577C13.483,5.715,13.272,5.628,13.057,5.628L13.057,5.628z
			 M13.057,5.628"/>
	</g>
</g>
</svg>
