<?xml version="1.0" encoding="utf-8"?>
<!-- Generator: Adobe Illustrator 17.0.0, SVG Export Plug-In . SVG Version: 6.00 Build 0)  -->
<!DOCTYPE svg PUBLIC "-//W3C//DTD SVG 1.1//EN" "http://www.w3.org/Graphics/SVG/1.1/DTD/svg11.dtd">
<svg version="1.1" id="Layer_1" xmlns="http://www.w3.org/2000/svg" xmlns:xlink="http://www.w3.org/1999/xlink" x="0px" y="0px"
	 width="93.131px" height="91.11px" viewBox="0 0 93.131 91.11" enable-background="new 0 0 93.131 91.11" xml:space="preserve">
<path fill="#EC3680" d="M46.563,69.227c-13.128,0-23.675-10.546-23.675-23.674c0-13.125,10.546-23.676,23.675-23.676
	c13.242,0,23.677,10.439,23.677,23.676C70.24,58.793,59.805,69.227,46.563,69.227 M89.281,27.424h-22.72V4.445
	C60.465,1.592,53.67,0,46.563,0C21.434,0,0,20.199,0,45.554C0,70.914,21.434,91.11,46.563,91.11
	c25.253,0,46.568-20.087,46.568-45.557C93.131,39.082,91.748,32.96,89.281,27.424"/>
</svg>
