<?xml version="1.0" encoding="utf-8"?>
<!-- Generator: Adobe Illustrator 17.0.0, SVG Export Plug-In . SVG Version: 6.00 Build 0)  -->
<!DOCTYPE svg PUBLIC "-//W3C//DTD SVG 1.1//EN" "http://www.w3.org/Graphics/SVG/1.1/DTD/svg11.dtd">
<svg version="1.1" id="Layer_1" xmlns="http://www.w3.org/2000/svg" xmlns:xlink="http://www.w3.org/1999/xlink" x="0px" y="0px"
	 width="126.8px" height="118.346px" viewBox="0 0 126.8 118.346" enable-background="new 0 0 126.8 118.346" xml:space="preserve">
<g>
	<path fill="#FFFFFF" d="M85.877,70.412c0-0.886-0.72-1.605-1.605-1.605h-9.635c-0.887,0-1.606,0.72-1.606,1.605
		c0,0.887,0.72,1.606,1.606,1.606h9.635C85.157,72.019,85.877,71.299,85.877,70.412L85.877,70.412z M85.877,70.412"/>
	<path fill="#FFFFFF" d="M79.454,28.664v-8.029c0-0.887-0.72-1.606-1.606-1.606c-0.886,0-1.605,0.72-1.605,1.606v8.029
		c0,4.427,3.601,8.029,8.029,8.029h14.451v30.509c0,0.887,0.72,1.606,1.606,1.606c0.887,0,1.606-0.72,1.606-1.606V35.087
		c0-0.886-0.719-1.605-1.606-1.605H84.272C81.615,33.481,79.454,31.32,79.454,28.664L79.454,28.664z M79.454,28.664"/>
	<path fill="#FFFFFF" d="M84.272,49.538H71.425c-0.886,0-1.605,0.72-1.605,1.606c0,0.886,0.72,1.605,1.605,1.605h12.847
		c0.886,0,1.605-0.719,1.605-1.605C85.877,50.258,85.157,49.538,84.272,49.538L84.272,49.538z M84.272,49.538"/>
	<path fill="#FFFFFF" d="M66.608,51.144c0-0.887-0.72-1.606-1.606-1.606h-9.635c-0.886,0-1.605,0.72-1.605,1.606
		c0,0.886,0.719,1.605,1.605,1.605h9.635C65.889,52.749,66.608,52.03,66.608,51.144L66.608,51.144z M66.608,51.144"/>
	<path fill="#FFFFFF" d="M55.368,59.173c-0.886,0-1.605,0.72-1.605,1.605c0,0.887,0.719,1.606,1.605,1.606h3.212
		c0.886,0,1.605-0.719,1.605-1.606c0-0.886-0.719-1.605-1.605-1.605H55.368z M55.368,59.173"/>
	<path fill="#FFFFFF" d="M55.368,43.116h16.057c0.887,0,1.606-0.719,1.606-1.606c0-0.887-0.719-1.606-1.606-1.606H55.368
		c-0.886,0-1.605,0.72-1.605,1.606C53.763,42.397,54.482,43.116,55.368,43.116L55.368,43.116z M55.368,43.116"/>
	<path fill="#FFFFFF" d="M65.002,62.384h16.057c0.887,0,1.606-0.719,1.606-1.605c0-0.887-0.719-1.606-1.606-1.606H65.002
		c-0.887,0-1.606,0.72-1.606,1.606C63.396,61.665,64.116,62.384,65.002,62.384L65.002,62.384z M65.002,62.384"/>
	<path fill="#FFFFFF" d="M74.637,78.441c-0.887,0-1.606,0.72-1.606,1.606c0,0.886,0.72,1.605,1.606,1.605h3.211
		c0.887,0,1.606-0.719,1.606-1.605c0-0.887-0.72-1.606-1.606-1.606H74.637z M74.637,78.441"/>
	<path fill="#FFFFFF" d="M68.214,68.807H55.368c-0.886,0-1.605,0.72-1.605,1.605c0,0.887,0.719,1.606,1.605,1.606h12.846
		c0.887,0,1.606-0.719,1.606-1.606C69.82,69.527,69.1,68.807,68.214,68.807L68.214,68.807z M68.214,68.807"/>
	<path fill="#FFFFFF" d="M68.214,78.441H55.368c-0.886,0-1.605,0.72-1.605,1.606c0,0.886,0.719,1.605,1.605,1.605h12.846
		c0.887,0,1.606-0.719,1.606-1.605C69.82,79.161,69.1,78.441,68.214,78.441L68.214,78.441z M68.214,78.441"/>
	<path fill="#FFFFFF" d="M106.445,77.143l-3.212-3.212c-2.468-2.468-6.229-2.463-8.693,0L73.501,94.969
		c-0.3,0.301-0.47,0.709-0.47,1.135v9.635c0,0.887,0.72,1.606,1.606,1.606h9.635c0.425,0,0.834-0.171,1.135-0.47l21.039-21.039
		C109.003,83.277,109.003,79.702,106.445,77.143L106.445,77.143z M92.464,80.548l2.547,2.547l-13.951,13.95l-2.547-2.546
		L92.464,80.548z M76.243,104.133v-7.363l7.363,7.363H76.243z M85.877,101.862l-2.546-2.547l13.95-13.95l2.547,2.547L85.877,101.862
		z M104.174,83.565l-2.076,2.076l-7.364-7.364l2.076-2.076c1.268-1.267,2.878-1.274,4.152,0l3.211,3.212
		C105.473,80.713,105.473,82.266,104.174,83.565L104.174,83.565z M104.174,83.565"/>
	<path fill="#FFFFFF" d="M68.214,104.133H26.465c-2.656,0-4.817-2.161-4.817-4.817V19.03c0-2.655,2.161-4.817,4.817-4.817h50.719
		L92.77,29.8c0.628,0.628,1.643,0.628,2.271,0c0.628-0.628,0.628-1.643,0-2.271L78.984,11.471c-0.3-0.301-0.71-0.47-1.136-0.47
		H26.465c-4.427,0-8.029,3.602-8.029,8.029v80.287c0,4.427,3.602,8.029,8.029,8.029h41.749c0.886,0,1.605-0.72,1.605-1.606
		C69.82,104.853,69.1,104.133,68.214,104.133L68.214,104.133z M68.214,104.133"/>
	<path fill="#FFFFFF" d="M68.214,88.076H55.368c-0.886,0-1.605,0.719-1.605,1.606c0,0.886,0.719,1.605,1.605,1.605h12.846
		c0.887,0,1.606-0.719,1.606-1.605C69.82,88.795,69.1,88.076,68.214,88.076L68.214,88.076z M68.214,88.076"/>
	<path fill="#FFFFFF" d="M47.339,41.51c0-0.887-0.72-1.606-1.605-1.606H36.1c-0.887,0-1.606,0.72-1.606,1.606v9.635
		c0,0.886,0.719,1.605,1.606,1.605h9.635c0.886,0,1.605-0.719,1.605-1.605V41.51z M44.128,49.538h-6.422v-6.423h6.422V49.538z
		 M44.128,49.538"/>
	<path fill="#FFFFFF" d="M36.1,91.287h9.635c0.886,0,1.605-0.719,1.605-1.605v-9.635c0-0.887-0.72-1.605-1.605-1.605H36.1
		c-0.887,0-1.606,0.719-1.606,1.605v9.635C34.494,90.567,35.213,91.287,36.1,91.287L36.1,91.287z M37.706,81.653h6.422v6.423h-6.422
		V81.653z M37.706,81.653"/>
	<path fill="#FFFFFF" d="M38.176,71.548c0.301,0.302,0.711,0.47,1.135,0.47c0.053,0,0.105-0.002,0.159-0.008
		c0.479-0.047,0.911-0.307,1.177-0.707l6.423-9.635c0.491-0.739,0.292-1.736-0.445-2.227c-0.74-0.493-1.734-0.292-2.227,0.445
		l-5.335,8.005l-1.828-1.825c-0.628-0.628-1.643-0.628-2.27,0c-0.628,0.628-0.628,1.643,0,2.27L38.176,71.548z M38.176,71.548"/>
</g>
</svg>
