<?xml version="1.0" encoding="utf-8"?>
<!-- Generator: Adobe Illustrator 17.0.0, SVG Export Plug-In . SVG Version: 6.00 Build 0)  -->
<!DOCTYPE svg PUBLIC "-//W3C//DTD SVG 1.1//EN" "http://www.w3.org/Graphics/SVG/1.1/DTD/svg11.dtd">
<svg version="1.1" id="Layer_1" xmlns="http://www.w3.org/2000/svg" xmlns:xlink="http://www.w3.org/1999/xlink" x="0px" y="0px"
	 width="126.8px" height="118.346px" viewBox="0 0 126.8 118.346" enable-background="new 0 0 126.8 118.346" xml:space="preserve">
<g>
	<path fill="#FFFFFF" d="M109.96,108.844H98.698v-3.395c0-7.774-2.073-13.776-6.163-17.836c-5.212-5.175-11.754-5.192-12.021-5.185
		h-8.3v-5.023c0-0.087-0.009-0.173-0.022-0.257c5.315-2.196,8.673-5.86,10.718-9.036c1.392-2.16,2.312-4.284,2.91-6.009
		c1.428,2.582,3.327,4.407,5.682,5.45c1.614,0.714,3.273,0.98,4.849,0.98c4.486-0.001,8.308-2.156,8.523-2.279
		c0.697-0.401,1.015-1.247,0.741-2.003c-0.274-0.756-1.043-1.209-1.836-1.068c-0.076,0.012-1.887,0.266-3.192-1.178
		c-2.695-2.981-1.304-10.399-0.236-14.555c3.787-14.742,2.662-28.385-2.937-35.605c-2.87-3.702-6.842-5.659-11.484-5.659
		c-5.151,0-9.083,1.388-11.686,4.128c-1.836,1.932-2.602,4.136-2.918,5.754c-2.39-0.69-5.015-1.043-7.876-1.043
		c-11.869,0-17.652,6.248-20.413,11.489c-2.941,5.583-3.099,11.107-3.105,11.339c0,0.017,0,0.033,0,0.049v5.391
		c-1.064,0.073-2.384,0.352-3.427,1.164c-0.942,0.733-1.507,1.782-1.634,3.032c-0.167,1.641-0.304,5.739,2.042,8.337
		c0.814,0.9,1.839,1.503,3.019,1.785v0.346c0,0.08,0.006,0.16,0.017,0.239c0.029,0.199,0.748,4.964,3.936,9.916
		c2.045,3.176,5.405,6.839,10.72,9.036c-0.013,0.083-0.022,0.169-0.022,0.257v5.023h-8.289c-0.271-0.001-6.82,0.011-12.031,5.185
		c-4.09,4.06-6.163,10.061-6.163,17.836v3.395H16.84c-0.915,0-1.657,0.742-1.657,1.657c0,0.915,0.742,1.657,1.657,1.657h93.12
		c0.915,0,1.657-0.742,1.657-1.657C111.617,109.587,110.875,108.844,109.96,108.844L109.96,108.844z M80.528,85.742
		c0.057,0.001,5.428,0.01,9.672,4.223c3.44,3.415,5.184,8.624,5.184,15.484v3.395H68.036v-11.72l0.127,0.042
		c0.169,0.055,0.342,0.081,0.513,0.081c0.473,0,0.933-0.202,1.252-0.572l1.728-1.995l3.002-1.836
		c0.58-0.355,0.886-1.028,0.769-1.699l-0.944-5.404h6.043V85.742z M55.449,88.178c1.089,2.315,3.16,4.08,5.672,4.756l-2.271,0.74
		l-1.176-1.358c-0.112-0.13-0.243-0.24-0.388-0.329l-2.261-1.382L55.449,88.178z M71.491,87.866l0.479,2.739l-2.261,1.382
		c-0.146,0.089-0.276,0.2-0.388,0.329l-1.176,1.358l-2.361-0.77C68.36,92.176,70.46,90.302,71.491,87.866L71.491,87.866z
		 M63.498,95.644l1.224,0.399v12.801h-2.54V96.073L63.498,95.644z M76.68,12.564c1.956-2.033,5.068-3.063,9.251-3.063
		c3.631,0,6.614,1.472,8.865,4.375c4.986,6.429,5.886,18.978,2.347,32.749c-2.207,8.588-1.857,14.532,1.043,17.664
		c0.226,0.244,0.459,0.462,0.695,0.656c-1.853,0.384-4.046,0.464-6.051-0.428c-2.876-1.281-4.881-4.37-5.964-9.177V37.915
		c0-0.473-0.07-10.047-6.724-16.721c-1.639-1.644-3.529-2.956-5.653-3.945C74.642,16.107,75.131,14.176,76.68,12.564L76.68,12.564z
		 M45.97,28.06c3.397-6.45,9.278-9.719,17.481-9.719c3.257,0,6.14,0.496,8.644,1.479c0.043,0.018,0.087,0.037,0.133,0.052
		c3.837,1.54,6.77,4.239,8.759,8.081c1.412,2.727,2.047,5.492,2.332,7.414c-5.934-2.952-7.583-8.29-7.657-8.537
		c-0.166-0.575-0.628-1.016-1.21-1.154c-0.582-0.137-1.193,0.049-1.599,0.489C63.442,36.351,48.314,36.582,43.39,36.36
		C43.632,34.511,44.273,31.281,45.97,28.06L45.97,28.06z M53.568,39.116c8.044-1.243,14.882-4.315,19.94-8.936
		c1.373,2.62,4.32,6.7,10.044,8.907v2.239c-1.561-0.414-4.041-0.898-7.134-0.898c-2.857,0-5.713,0.412-8.489,1.224
		c-0.525,0.153-0.939,0.556-1.11,1.075c-0.035,0.106-0.445,1.396-0.569,3.095c-2.32-0.52-4.34-0.341-5.79-0.025
		c-0.126-1.686-0.533-2.964-0.568-3.07c-0.17-0.52-0.585-0.922-1.11-1.075c-2.776-0.812-5.632-1.224-8.49-1.224
		c-3.036,0-5.481,0.465-7.046,0.875v-1.626C45.371,39.78,49.133,39.801,53.568,39.116L53.568,39.116z M83.029,44.621
		c-0.387,6.421-1.907,6.743-6.15,6.743c-0.806,0-1.749-0.031-3.057-0.099c-1.731-0.092-2.897-0.606-3.564-1.574
		c-0.986-1.43-0.79-3.717-0.501-5.103c2.19-0.561,4.426-0.845,6.662-0.845C79.409,43.743,81.749,44.257,83.029,44.621L83.029,44.621
		z M56.456,49.691c-0.667,0.968-1.833,1.482-3.564,1.574c-1.308,0.069-2.251,0.099-3.057,0.099c-4.244,0-5.763-0.323-6.15-6.748
		c1.272-0.363,3.596-0.874,6.611-0.874c2.235,0,4.471,0.284,6.661,0.845C57.245,45.976,57.441,48.261,56.456,49.691L56.456,49.691z
		 M39.374,53.606c-1.189-1.316-1.402-3.848-1.205-5.779c0.044-0.44,0.213-0.627,0.371-0.751c0.336-0.263,0.867-0.396,1.394-0.453
		v7.451C39.731,53.947,39.543,53.794,39.374,53.606L39.374,53.606z M46.74,66.421c-2.592-3.979-3.372-7.919-3.492-8.598v-4.852
		c1.469,1.224,3.588,1.707,6.587,1.707c0.866,0,1.863-0.033,3.232-0.105c2.795-0.148,4.856-1.162,6.127-3.015
		c0.484-0.707,0.802-1.478,1.004-2.262c1.055-0.363,3.427-0.92,6.328,0.037c0.203,0.771,0.518,1.53,0.995,2.226
		c1.271,1.853,3.332,2.867,6.127,3.015c1.368,0.072,2.365,0.105,3.232,0.105c3.056,0,5.201-0.5,6.672-1.777v4.926
		c-0.117,0.675-0.868,4.522-3.426,8.492c-3.712,5.765-9.287,8.933-16.572,9.418h-0.308C56.007,75.255,50.454,72.121,46.74,66.421
		L46.74,66.421z M63.084,79.048c0.036,0.002,0.071,0.003,0.107,0.003h0.417c0.036,0,0.071-0.001,0.107-0.003
		c1.877-0.122,3.601-0.405,5.186-0.81v5.848c0,0.01,0.001,0.02,0.002,0.03c-0.024,0.109-0.036,0.222-0.036,0.338
		c0,3.015-2.452,5.468-5.467,5.468s-5.468-2.453-5.468-5.468c0-0.115-0.012-0.229-0.035-0.338c0-0.01,0.001-0.02,0.001-0.03v-5.848
		C59.484,78.643,61.206,78.925,63.084,79.048L63.084,79.048z M31.416,105.449c0-19.481,14.255-19.707,14.868-19.707h6.226
		l-0.943,5.404c-0.118,0.67,0.187,1.343,0.768,1.699l3.002,1.835l1.728,1.995c0.32,0.37,0.78,0.573,1.252,0.573
		c0.171,0,0.344-0.027,0.514-0.082l0.036-0.012v11.69H31.416V105.449z M31.416,105.449"/>
	<path fill="#FFFFFF" d="M53.615,47.281c0,1.093-0.885,1.978-1.977,1.978c-1.092,0-1.977-0.885-1.977-1.978
		c0-1.092,0.886-1.977,1.977-1.977C52.731,45.303,53.615,46.189,53.615,47.281L53.615,47.281z M53.615,47.281"/>
	<path fill="#FFFFFF" d="M77.138,47.281c0,1.093-0.885,1.978-1.977,1.978c-1.092,0-1.978-0.885-1.978-1.978
		c0-1.092,0.886-1.977,1.978-1.977C76.254,45.303,77.138,46.189,77.138,47.281L77.138,47.281z M77.138,47.281"/>
	<path fill="#FFFFFF" d="M63.113,57.97h0.575c1.772,0,3.216-1.442,3.216-3.216c0-0.916-0.742-1.657-1.657-1.657
		c-0.882,0-1.604,0.689-1.655,1.559h-0.383c-0.051-0.87-0.772-1.559-1.655-1.559c-0.915,0-1.657,0.741-1.657,1.657
		C59.897,56.528,61.339,57.97,63.113,57.97L63.113,57.97z M63.113,57.97"/>
	<path fill="#FFFFFF" d="M73.671,64.673c0.575-0.712,0.463-1.755-0.249-2.33c-0.712-0.574-1.755-0.463-2.33,0.25
		c-0.017,0.022-2.007,2.195-7.284,2.195c-5.478,0-8.15-2.272-8.284-2.388c-0.676-0.607-1.717-0.556-2.331,0.117
		c-0.617,0.677-0.568,1.725,0.108,2.341c0.146,0.133,3.639,3.245,10.507,3.245C70.707,68.103,73.389,65.025,73.671,64.673
		L73.671,64.673z M73.671,64.673"/>
</g>
</svg>
