<?xml version="1.0" encoding="utf-8"?>
<!-- Generator: Adobe Illustrator 17.0.0, SVG Export Plug-In . SVG Version: 6.00 Build 0)  -->
<!DOCTYPE svg PUBLIC "-//W3C//DTD SVG 1.1//EN" "http://www.w3.org/Graphics/SVG/1.1/DTD/svg11.dtd">
<svg version="1.1" id="Layer_1" xmlns="http://www.w3.org/2000/svg" xmlns:xlink="http://www.w3.org/1999/xlink" x="0px" y="0px"
	 width="30.785px" height="36.426px" viewBox="0 0 30.785 36.426" enable-background="new 0 0 30.785 36.426" xml:space="preserve">
<g>
	<rect x="1.314" y="34.331" fill="#FFFFFF" width="28.275" height="2.094"/>
	<path fill="#FFFFFF" d="M15.392,22.883c-4.34,0-7.826-3.486-7.826-7.825c0-4.339,3.486-7.826,7.826-7.826
		c4.377,0,7.827,3.451,7.827,7.826C23.218,19.434,19.769,22.883,15.392,22.883 M29.513,9.065h-7.51V1.469
		C19.987,0.526,17.741,0,15.392,0C7.085,0,0,6.677,0,15.058c0,8.383,7.085,15.059,15.392,15.059c8.348,0,15.393-6.64,15.393-15.059
		C30.785,12.919,30.328,10.895,29.513,9.065"/>
</g>
</svg>
