<?xml version="1.0" encoding="utf-8"?>
<!-- Generator: Adobe Illustrator 17.0.0, SVG Export Plug-In . SVG Version: 6.00 Build 0)  -->
<!DOCTYPE svg PUBLIC "-//W3C//DTD SVG 1.1//EN" "http://www.w3.org/Graphics/SVG/1.1/DTD/svg11.dtd">
<svg version="1.1" id="Layer_1" xmlns="http://www.w3.org/2000/svg" xmlns:xlink="http://www.w3.org/1999/xlink" x="0px" y="0px"
	 width="76.686px" height="76.8px" viewBox="0 0 76.686 76.8" enable-background="new 0 0 76.686 76.8" xml:space="preserve">
<g>
	
		<ellipse fill="none" stroke="#FFFFFF" stroke-width="3.6284" stroke-miterlimit="10" cx="38.343" cy="38.4" rx="36.529" ry="36.586"/>
	<g>
		<path fill="#FFFFFF" d="M50.246,43.334c0-0.412-0.334-0.746-0.745-0.746h-4.473c-0.412,0-0.746,0.335-0.746,0.746
			c0,0.412,0.334,0.747,0.746,0.747h4.473C49.912,44.081,50.246,43.747,50.246,43.334L50.246,43.334z M50.246,43.334"/>
		<path fill="#FFFFFF" d="M47.264,23.923V20.19c0-0.412-0.334-0.747-0.746-0.747c-0.411,0-0.745,0.335-0.745,0.747v3.733
			c0,2.058,1.672,3.733,3.727,3.733h6.709v14.185c0,0.412,0.334,0.747,0.746,0.747c0.412,0,0.746-0.335,0.746-0.747V26.909
			c0-0.412-0.334-0.746-0.746-0.746h-7.454C48.268,26.163,47.264,25.158,47.264,23.923L47.264,23.923z M47.264,23.923"/>
		<path fill="#FFFFFF" d="M49.501,33.628h-5.964c-0.411,0-0.745,0.335-0.745,0.747c0,0.412,0.334,0.746,0.745,0.746h5.964
			c0.411,0,0.745-0.334,0.745-0.746C50.246,33.963,49.912,33.628,49.501,33.628L49.501,33.628z M49.501,33.628"/>
		<path fill="#FFFFFF" d="M41.301,34.375c0-0.412-0.334-0.747-0.746-0.747h-4.473c-0.411,0-0.745,0.335-0.745,0.747
			c0,0.412,0.334,0.746,0.745,0.746h4.473C40.967,35.122,41.301,34.787,41.301,34.375L41.301,34.375z M41.301,34.375"/>
		<path fill="#FFFFFF" d="M36.083,38.108c-0.411,0-0.745,0.335-0.745,0.746c0,0.412,0.334,0.747,0.745,0.747h1.491
			c0.411,0,0.745-0.334,0.745-0.747c0-0.412-0.334-0.746-0.745-0.746H36.083z M36.083,38.108"/>
		<path fill="#FFFFFF" d="M36.083,30.642h7.454c0.412,0,0.746-0.334,0.746-0.747c0-0.412-0.334-0.747-0.746-0.747h-7.454
			c-0.411,0-0.745,0.335-0.745,0.747C35.338,30.308,35.671,30.642,36.083,30.642L36.083,30.642z M36.083,30.642"/>
		<path fill="#FFFFFF" d="M40.555,39.601h7.454c0.412,0,0.746-0.334,0.746-0.746c0-0.412-0.334-0.747-0.746-0.747h-7.454
			c-0.412,0-0.746,0.335-0.746,0.747C39.81,39.267,40.144,39.601,40.555,39.601L40.555,39.601z M40.555,39.601"/>
		<path fill="#FFFFFF" d="M45.028,47.067c-0.412,0-0.746,0.335-0.746,0.747c0,0.412,0.334,0.746,0.746,0.746h1.491
			c0.412,0,0.746-0.334,0.746-0.746c0-0.412-0.334-0.747-0.746-0.747H45.028z M45.028,47.067"/>
		<path fill="#FFFFFF" d="M42.046,42.588h-5.963c-0.411,0-0.745,0.335-0.745,0.746c0,0.412,0.334,0.747,0.745,0.747h5.963
			c0.412,0,0.746-0.334,0.746-0.747C42.792,42.922,42.458,42.588,42.046,42.588L42.046,42.588z M42.046,42.588"/>
		<path fill="#FFFFFF" d="M42.046,47.067h-5.963c-0.411,0-0.745,0.335-0.745,0.747c0,0.412,0.334,0.746,0.745,0.746h5.963
			c0.412,0,0.746-0.334,0.746-0.746C42.792,47.402,42.458,47.067,42.046,47.067L42.046,47.067z M42.046,47.067"/>
		<path fill="#FFFFFF" d="M59.795,46.463l-1.491-1.493c-1.146-1.147-2.892-1.145-4.036,0l-9.767,9.782
			c-0.139,0.14-0.218,0.33-0.218,0.528v4.48c0,0.412,0.334,0.747,0.746,0.747h4.473c0.197,0,0.387-0.08,0.527-0.219l9.767-9.782
			C60.982,49.316,60.982,47.653,59.795,46.463L59.795,46.463z M53.304,48.047l1.182,1.184l-6.477,6.486l-1.182-1.184L53.304,48.047z
			 M45.774,59.013v-3.424l3.418,3.424H45.774z M50.246,57.957l-1.182-1.184l6.476-6.486l1.182,1.184L50.246,57.957z M58.74,49.45
			l-0.964,0.965l-3.419-3.424l0.964-0.965c0.589-0.589,1.336-0.592,1.928,0l1.491,1.493C59.343,48.124,59.343,48.846,58.74,49.45
			L58.74,49.45z M58.74,49.45"/>
		<path fill="#FFFFFF" d="M42.046,59.013H22.665c-1.233,0-2.236-1.005-2.236-2.24v-37.33c0-1.235,1.003-2.24,2.236-2.24h23.546
			l7.236,7.248c0.291,0.292,0.763,0.292,1.054,0c0.291-0.292,0.291-0.764,0-1.056l-7.454-7.466c-0.139-0.14-0.33-0.219-0.527-0.219
			H22.665c-2.055,0-3.727,1.675-3.727,3.733v37.33c0,2.058,1.672,3.733,3.727,3.733h19.382c0.411,0,0.745-0.335,0.745-0.747
			C42.792,59.348,42.458,59.013,42.046,59.013L42.046,59.013z M42.046,59.013"/>
		<path fill="#FFFFFF" d="M42.046,51.547h-5.963c-0.411,0-0.745,0.334-0.745,0.747c0,0.412,0.334,0.746,0.745,0.746h5.963
			c0.412,0,0.746-0.334,0.746-0.746C42.792,51.881,42.458,51.547,42.046,51.547L42.046,51.547z M42.046,51.547"/>
		<path fill="#FFFFFF" d="M32.356,29.896c0-0.412-0.334-0.747-0.745-0.747h-4.473c-0.412,0-0.746,0.335-0.746,0.747v4.48
			c0,0.412,0.334,0.746,0.746,0.746h4.473c0.411,0,0.745-0.334,0.745-0.746V29.896z M30.865,33.628h-2.982v-2.986h2.982V33.628z
			 M30.865,33.628"/>
		<path fill="#FFFFFF" d="M27.138,53.04h4.473c0.411,0,0.745-0.334,0.745-0.746v-4.48c0-0.412-0.334-0.746-0.745-0.746h-4.473
			c-0.412,0-0.746,0.334-0.746,0.746v4.48C26.392,52.706,26.726,53.04,27.138,53.04L27.138,53.04z M27.883,48.561h2.982v2.986
			h-2.982V48.561z M27.883,48.561"/>
		<path fill="#FFFFFF" d="M28.102,43.862c0.14,0.14,0.33,0.219,0.527,0.219c0.025,0,0.049-0.001,0.074-0.004
			c0.222-0.022,0.423-0.143,0.546-0.329l2.982-4.48c0.228-0.343,0.136-0.807-0.207-1.035c-0.343-0.229-0.805-0.136-1.034,0.207
			l-2.477,3.722l-0.848-0.849c-0.291-0.292-0.763-0.292-1.054,0c-0.291,0.292-0.291,0.764,0,1.056L28.102,43.862z M28.102,43.862"/>
	</g>
</g>
</svg>
