<?xml version="1.0" encoding="utf-8"?>
<!-- Generator: Adobe Illustrator 17.0.0, SVG Export Plug-In . SVG Version: 6.00 Build 0)  -->
<!DOCTYPE svg PUBLIC "-//W3C//DTD SVG 1.1//EN" "http://www.w3.org/Graphics/SVG/1.1/DTD/svg11.dtd">
<svg version="1.1" id="Layer_1" xmlns="http://www.w3.org/2000/svg" xmlns:xlink="http://www.w3.org/1999/xlink" x="0px" y="0px"
	 width="76.686px" height="76.8px" viewBox="0 0 76.686 76.8" enable-background="new 0 0 76.686 76.8" xml:space="preserve">
<g>
	
		<ellipse fill="none" stroke="#FFFFFF" stroke-width="3.6284" stroke-miterlimit="10" cx="38.343" cy="38.4" rx="36.529" ry="36.586"/>
	<g>
		<path fill="#FFFFFF" d="M62.346,45.14c1.014-1.295,1.5-2.683,1.438-4.113c-0.062-1.575-0.765-2.808-1.345-3.564
			c0.672-1.679,0.931-4.321-1.314-6.372c-1.645-1.503-4.438-2.176-8.307-1.99c-2.721,0.124-4.997,0.632-5.09,0.653h-0.01
			c-0.517,0.093-1.066,0.207-1.625,0.331c-0.041-0.663,0.073-2.311,1.293-6.02c1.448-4.414,1.366-7.792-0.269-10.05
			c-1.717-2.373-4.459-2.559-5.266-2.559c-0.776,0-1.49,0.321-1.996,0.912c-1.148,1.337-1.014,3.802-0.869,4.942
			c-1.365,3.668-5.193,12.662-8.431,15.158c-0.062,0.042-0.114,0.094-0.165,0.145c-0.952,1.005-1.593,2.093-2.028,3.046
			c-0.611-0.331-1.304-0.518-2.049-0.518h-6.31c-2.38,0-4.304,1.938-4.304,4.31v16.837c0,2.383,1.935,4.31,4.304,4.31h6.31
			c0.921,0,1.78-0.29,2.483-0.788l2.431,0.291c0.373,0.052,6.994,0.891,13.79,0.756c1.231,0.093,2.39,0.145,3.466,0.145
			c1.852,0,3.466-0.145,4.81-0.435c3.166-0.673,5.328-2.02,6.424-3.999c0.838-1.513,0.838-3.015,0.704-3.968
			c2.059-1.865,2.421-3.927,2.348-5.378C62.729,46.384,62.543,45.669,62.346,45.14L62.346,45.14z M20.004,57.802
			c-0.838,0-1.51-0.684-1.51-1.513V39.442c0-0.839,0.682-1.513,1.51-1.513h6.31c0.838,0,1.511,0.684,1.511,1.513v16.837
			c0,0.839-0.683,1.513-1.511,1.513h-6.31V57.802z M59.698,43.928c-0.434,0.456-0.517,1.15-0.186,1.689
			c0,0.01,0.424,0.736,0.476,1.73c0.072,1.357-0.579,2.559-1.945,3.585c-0.486,0.373-0.683,1.015-0.476,1.596
			c0,0.01,0.444,1.378-0.279,2.673c-0.694,1.243-2.235,2.134-4.573,2.631c-1.872,0.404-4.417,0.477-7.541,0.228h-0.145
			c-6.652,0.145-13.377-0.726-13.449-0.736h-0.011l-1.045-0.124c0.062-0.29,0.093-0.601,0.093-0.912V39.442
			c0-0.445-0.072-0.88-0.196-1.285c0.186-0.694,0.704-2.238,1.924-3.554c4.645-3.689,9.187-16.132,9.383-16.671
			c0.083-0.218,0.103-0.456,0.062-0.694c-0.176-1.161-0.114-2.58,0.134-3.005c0.548,0.01,2.028,0.166,2.917,1.398
			c1.055,1.461,1.014,4.072-0.124,7.533c-1.738,5.274-1.883,8.051-0.507,9.274c0.683,0.611,1.593,0.643,2.256,0.404
			c0.631-0.145,1.231-0.27,1.8-0.363c0.041-0.011,0.093-0.021,0.134-0.031c3.176-0.694,8.866-1.119,10.842,0.684
			c1.676,1.533,0.486,3.564,0.352,3.782c-0.383,0.58-0.269,1.337,0.248,1.803c0.011,0.01,1.097,1.036,1.148,2.414
			C61.032,42.053,60.598,42.996,59.698,43.928L59.698,43.928z M59.698,43.928"/>
	</g>
</g>
</svg>
