<?xml version="1.0" encoding="utf-8"?>
<!-- Generator: Adobe Illustrator 17.0.0, SVG Export Plug-In . SVG Version: 6.00 Build 0)  -->
<!DOCTYPE svg PUBLIC "-//W3C//DTD SVG 1.1//EN" "http://www.w3.org/Graphics/SVG/1.1/DTD/svg11.dtd">
<svg version="1.1" id="Layer_1" xmlns="http://www.w3.org/2000/svg" xmlns:xlink="http://www.w3.org/1999/xlink" x="0px" y="0px"
	 width="76.686px" height="76.8px" viewBox="0 0 76.686 76.8" enable-background="new 0 0 76.686 76.8" xml:space="preserve">
<ellipse fill="none" stroke="#FFFFFF" stroke-width="3.6284" stroke-miterlimit="10" cx="38.343" cy="38.4" rx="36.529" ry="36.586"/>
<path fill="#FFFFFF" d="M17.945,49.223l15.073,7.999c1.073,0.85,2.416,1.316,3.789,1.316c0.319,0,0.644-0.026,0.958-0.075
	c1.722-0.275,3.249-1.27,4.192-2.735l18.059-27.985c0.889-1.38,1.193-3.019,0.848-4.624c-0.344-1.605-1.292-2.979-2.669-3.869
	c-0.994-0.645-2.142-0.985-3.325-0.985c-2.092,0-4.019,1.049-5.156,2.809L35.209,43.549l-9.648-3.955
	c-1.067-0.825-2.396-1.28-3.743-1.28c-1.857,0-3.594,0.824-4.762,2.264C14.924,43.209,15.319,47.084,17.945,49.223L17.945,49.223z
	 M18.642,41.874c0.779-0.96,1.937-1.509,3.175-1.509c0.948,0,1.836,0.315,2.575,0.919l11.615,4.799l15.424-23.901
	c0.753-1.17,2.041-1.868,3.439-1.868c0.783,0,1.552,0.224,2.211,0.654c1.897,1.225,2.442,3.765,1.219,5.664L40.24,54.617
	c-0.629,0.975-1.652,1.639-2.801,1.82c-1.147,0.186-2.326-0.14-3.214-0.865l-15.064-7.999
	C17.479,46.133,17.241,43.599,18.642,41.874L18.642,41.874z M18.642,41.874"/>
</svg>
