<?xml version="1.0" encoding="utf-8"?>
<!-- Generator: Adobe Illustrator 17.0.0, SVG Export Plug-In . SVG Version: 6.00 Build 0)  -->
<!DOCTYPE svg PUBLIC "-//W3C//DTD SVG 1.1//EN" "http://www.w3.org/Graphics/SVG/1.1/DTD/svg11.dtd">
<svg version="1.1" id="Layer_1" xmlns="http://www.w3.org/2000/svg" xmlns:xlink="http://www.w3.org/1999/xlink" x="0px" y="0px"
	 width="76.686px" height="76.8px" viewBox="0 0 76.686 76.8" enable-background="new 0 0 76.686 76.8" xml:space="preserve">
<ellipse fill="none" stroke="#FFFFFF" stroke-width="3.6284" stroke-miterlimit="10" cx="38.343" cy="38.4" rx="36.529" ry="36.586"/>
<g>
	<circle fill="#FFFFFF" cx="32.558" cy="28.019" r="1.658"/>
	<circle fill="#FFFFFF" cx="44.548" cy="28.019" r="1.658"/>
	<path fill="#FFFFFF" d="M45.44,45.441L45.44,45.441h-0.001h-2.512v-0.959h1.453c4.301,0,7.8-3.504,7.8-7.812V34.59
		c2.146-0.539,3.74-2.486,3.74-4.8c0-2.279-1.591-4.254-3.74-4.798v-1.61c0-7.526-6.113-13.649-13.628-13.649
		c-7.514,0-13.628,6.123-13.628,13.649v1.61c-2.15,0.545-3.74,2.519-3.74,4.798c0,2.314,1.594,4.262,3.74,4.8v2.079
		c0,4.308,3.499,7.812,7.8,7.812h1.453v0.959h-2.511c-5.78,0-10.482,4.709-10.482,10.498v6.903c0,0.465,0.377,0.842,0.841,0.842
		H55.08c0.464,0,0.841-0.377,0.841-0.842v-6.903C55.921,50.151,51.219,45.442,45.44,45.441z M52.18,30.026v-3.269
		c1.206,0.485,2.058,1.677,2.058,3.032c0,1.375-0.854,2.553-2.058,3.033V30.026z M44.599,47.125v0.772
		c0,1.437-1.167,2.606-2.602,2.606s-2.602-1.169-2.602-2.606v-0.772h2.692H44.599z M38.553,45.441H35.86v-1.802v-0.231
		c0,0.054,1.097,0.174,1.198,0.185c0.432,0.047,0.865,0.074,1.3,0.08c0.868,0.012,1.738-0.058,2.593-0.21
		c0.099-0.018,0.197-0.035,0.295-0.055v0.231v1.802C41.246,45.441,38.554,45.441,38.553,45.441z M50.499,36.669
		c0,3.379-2.745,6.128-6.118,6.128h-1.013c0.048-0.018,0.095-0.039,0.143-0.057c0.033-0.013,0.066-0.027,0.099-0.04
		c1.479-0.594,2.848-1.451,4.036-2.514c0.636-0.569,1.22-1.198,1.738-1.877c0.416-0.545,0.788-1.115,1.114-1.705L50.499,36.669
		L50.499,36.669z M26.607,23.381c0-6.597,5.359-11.965,11.946-11.965s11.946,5.367,11.946,11.965v1.274
		c-4.28-0.948-8.844-3.321-10.911-7.38c-0.016-0.032-0.033-0.064-0.048-0.097c-0.133-0.27-0.191-0.428-0.192-0.432
		c-0.118-0.338-0.436-0.565-0.794-0.565c-0.345,0-0.652,0.212-0.779,0.53c-0.004,0.011-0.01,0.021-0.014,0.032
		c-0.004,0.011-0.305,0.835-1.13,1.958c-0.002,0.003-0.004,0.006-0.006,0.008c-0.025,0.033-0.05,0.067-0.075,0.101
		c-0.018,0.024-0.037,0.049-0.056,0.073c-0.009,0.011-0.017,0.022-0.026,0.033c-0.71,0.919-1.764,2.011-3.282,3.029
		c-0.009,0.006-0.018,0.012-0.027,0.018c-0.068,0.046-0.138,0.091-0.208,0.137c-0.061,0.039-0.122,0.077-0.183,0.116
		c-0.025,0.016-0.049,0.031-0.074,0.047c-2.043,1.259-4.233,1.979-6.085,2.391L26.607,23.381L26.607,23.381z M24.925,30.026v2.796
		c-1.204-0.48-2.058-1.658-2.058-3.033c0-1.355,0.852-2.548,2.058-3.033V30.026z M32.725,42.797c-3.374,0-6.118-2.749-6.118-6.128
		v-0.066c0.326,0.59,0.698,1.16,1.114,1.706c0.965,1.265,2.158,2.355,3.495,3.214c0.721,0.463,1.485,0.857,2.279,1.177
		c0.033,0.013,0.066,0.027,0.099,0.04c0.048,0.019,0.095,0.039,0.143,0.057L32.725,42.797L32.725,42.797z M34.1,41.103
		c-4.14-1.697-7.116-5.713-7.459-10.19c-0.115-1.5-0.034-3.03-0.034-4.534c0-0.052,2.419-0.61,2.649-0.685
		c0.949-0.308,1.874-0.691,2.764-1.142c2.41-1.22,4.634-2.921,6.182-5.156c0.129-0.187,0.246-0.365,0.35-0.534
		c0.419,0.674,1.028,1.508,1.885,2.382c0.055,0.056,0.112,0.114,0.171,0.171c0.02,0.02,0.041,0.04,0.061,0.059
		c1.388,1.354,3.071,2.439,4.821,3.272c1.595,0.759,3.284,1.275,5.009,1.631c0,2.731,0.188,5.493-0.852,8.082
		c-0.82,2.042-2.223,3.83-3.984,5.142c-1.928,1.436-4.274,2.293-6.679,2.38C37.287,42.045,35.626,41.729,34.1,41.103z
		 M32.507,47.125h2.511h2.693v0.772c0,1.437-1.167,2.606-2.602,2.606l0,0c-1.435,0-2.602-1.169-2.602-2.606V47.125z M54.239,62
		H22.867v-6.061c0-4.576,3.5-8.347,7.959-8.772v0.731c0,2.366,1.922,4.291,4.284,4.291c1.41,0,2.662-0.686,3.444-1.742
		c0.781,1.056,2.034,1.742,3.444,1.742c2.362,0,4.284-1.925,4.284-4.291v-0.731c4.459,0.426,7.958,4.197,7.958,8.772L54.239,62
		L54.239,62z"/>
	<path fill="#FFFFFF" d="M43.307,35.166c0.378-0.271,0.464-0.797,0.194-1.175c-0.271-0.378-0.796-0.465-1.173-0.194
		c-0.789,0.566-2.235,0.918-3.774,0.918c-1.539,0-2.986-0.352-3.775-0.918c-0.378-0.271-0.903-0.184-1.173,0.194
		c-0.271,0.378-0.184,0.904,0.194,1.175c1.076,0.772,2.853,1.233,4.755,1.233C40.454,36.399,42.231,35.938,43.307,35.166z"/>
</g>
</svg>
