<?xml version="1.0" encoding="utf-8"?>
<!-- Generator: Adobe Illustrator 17.0.0, SVG Export Plug-In . SVG Version: 6.00 Build 0)  -->
<!DOCTYPE svg PUBLIC "-//W3C//DTD SVG 1.1//EN" "http://www.w3.org/Graphics/SVG/1.1/DTD/svg11.dtd">
<svg version="1.1" id="Layer_1" xmlns="http://www.w3.org/2000/svg" xmlns:xlink="http://www.w3.org/1999/xlink" x="0px" y="0px"
	 width="69.676px" height="73.656px" viewBox="0 0 69.676 73.656" enable-background="new 0 0 69.676 73.656" xml:space="preserve">
<g>
	<g>
		<path fill="none" stroke="#808080" stroke-width="2" stroke-miterlimit="10" d="M10.621,72.656h48.434
			c5.291,0,9.621-4.329,9.621-9.621V10.621C68.676,5.329,64.346,1,59.055,1H10.621C5.329,1,1,5.329,1,10.621v52.415
			C1,68.327,5.329,72.656,10.621,72.656z"/>
	</g>
	<g>
		<path fill="#008057" d="M28.786,17.429c1.066-0.07,2.683,0.155,4.268,0.63c1.34,0.402,2.458,1.138,3.212,2.326
			c0.342,0.538,0.593,0.445,1.018,0.125c2.726-2.054,5.768-3.183,9.22-3.059c6.119,0.219,10.26,5.071,9.561,11.17
			c-0.462,4.034-1.804,7.838-3.543,11.503c-0.277,0.583-0.663,0.849-1.295,0.985c-2.934,0.629-5.905,0.939-8.892,1.096
			c-1.984,0.104-3.967-0.001-5.861-0.666c-4.44-1.557-4.519-5.585-2.717-8.521c1.549-2.524,4-3.935,6.673-4.962
			c3.081-1.184,6.288-1.658,9.589-1.395c0.382,0.03,0.584-0.026,0.62-0.462c0.218-2.604-1.972-5.387-4.545-5.584
			c-1.819-0.139-3.458,0.566-4.959,1.546c-2.221,1.451-4.005,3.386-5.801,5.309c-2.537,2.716-5.687,4.339-9.311,5.078
			c-2.046,0.417-4.114,0.505-6.195,0.432c-0.84-0.03-0.857,0.018-0.766,0.844c0.102,0.922,0.317,1.803,0.784,2.613
			c1.317,2.287,3.272,3.056,5.827,2.324c1.712-0.49,3.145-1.443,4.471-2.59c0.346-0.3,0.689-0.604,1.042-0.896
			c0.086-0.071,0.211-0.149,0.308-0.138c0.154,0.018,0.133,0.178,0.116,0.295c-0.176,1.217-0.086,2.406,0.358,3.561
			c0.12,0.312-0.062,0.498-0.303,0.654c-3.911,2.518-8.073,3.531-12.496,1.612c-3.581-1.554-5.356-4.518-5.602-8.374
			c-0.164-2.572,0.545-5.022,1.264-7.454c0.617-2.086,1.459-4.087,2.375-6.058c0.213-0.459,0.503-0.729,1.007-0.818
			C21.517,17.972,24.829,17.466,28.786,17.429z M47.566,30.665c-1.66,0.08-3.332,0.122-4.936,0.607c-1.56,0.472-3,1.133-3.981,2.569
			c-1.327,1.942-0.413,4.467,1.874,5.03c1.454,0.358,2.806-0.015,4.029-0.726c2.664-1.547,4.279-3.96,5.326-6.8
			c0.142-0.386,0.029-0.54-0.365-0.55C48.863,30.778,48.222,30.608,47.566,30.665z M22.312,28.9c1.477,0.06,2.942-0.032,4.37-0.444
			c1.519-0.438,2.944-1.014,4.043-2.254c1.528-1.724,1.132-4.151-0.918-5.173c-1.312-0.654-2.646-0.51-3.908,0.088
			c-3.103,1.471-4.952,4.039-6.103,7.186c-0.15,0.409-0.005,0.597,0.419,0.597C20.913,28.9,21.612,28.9,22.312,28.9z"/>
		<path d="M17.661,51.842c0,1.085-0.022,2.17,0.009,3.254c0.015,0.528-0.2,0.811-0.689,0.937c-0.882,0.227-1.773,0.28-2.638-0.013
			c-1.331-0.451-1.98-1.725-1.764-3.342c0.206-1.535,1.045-2.39,2.543-2.468c0.609-0.032,0.821-0.258,0.769-0.83
			c-0.022-0.239-0.005-0.482-0.003-0.723c0.008-0.912,0.081-0.949,1-0.967c0.616-0.012,0.795,0.252,0.781,0.824
			C17.643,49.623,17.662,50.733,17.661,51.842z M15.886,53.112c0-0.386,0.007-0.772-0.003-1.157
			c-0.007-0.26,0.028-0.564-0.312-0.655c-0.308-0.082-0.567,0.056-0.782,0.269c-0.334,0.332-0.399,0.783-0.411,1.206
			c-0.02,0.664-0.075,1.361,0.428,1.915c0.21,0.231,0.482,0.331,0.787,0.242c0.343-0.1,0.283-0.408,0.29-0.664
			C15.895,53.884,15.886,53.498,15.886,53.112z"/>
		<path d="M29.832,53.218c-0.009,1.859-0.883,2.878-2.535,2.986c-0.566,0.037-1.041-0.177-1.494-0.459
			c-1.164-0.724-1.505-3.089-0.66-4.486c0.67-1.107,2.31-1.436,3.532-0.686C29.666,51.18,29.834,52.167,29.832,53.218z
			 M28.049,53.198c0.016-0.486-0.018-0.966-0.206-1.42c-0.1-0.243-0.291-0.38-0.559-0.389c-0.274-0.009-0.474,0.129-0.564,0.373
			c-0.329,0.89-0.348,1.793-0.03,2.688c0.094,0.265,0.315,0.435,0.61,0.435c0.274,0.001,0.434-0.195,0.545-0.416
			C28.047,54.07,28.058,53.634,28.049,53.198z"/>
		<path d="M46.731,53.636c0,0.433,0.002,0.771,0,1.109c-0.009,1.032-0.164,1.206-1.163,1.383c-0.844,0.15-1.679,0.182-2.5-0.11
			c-0.685-0.243-1.167-0.671-1.255-1.438c-0.094-0.813,0.246-1.404,0.937-1.808c0.531-0.309,1.126-0.422,1.719-0.538
			c0.21-0.041,0.47-0.036,0.467-0.339c-0.002-0.282-0.2-0.439-0.456-0.484c-0.48-0.085-0.965-0.079-1.432,0.075
			c-0.416,0.138-0.629-0.002-0.744-0.415c-0.117-0.418,0.097-0.565,0.44-0.672c0.727-0.227,1.469-0.297,2.218-0.19
			c0.898,0.128,1.469,0.689,1.676,1.573C46.789,52.428,46.706,53.081,46.731,53.636z M44.991,54.115
			c-0.122-0.29,0.232-0.792-0.329-0.941c-0.42-0.111-1.127,0.499-1.188,0.97c-0.07,0.537,0.322,0.949,0.908,0.97
			C45.146,55.14,44.94,54.57,44.991,54.115z"/>
		<path d="M38.62,53.834c0,0.217,0,0.434,0,0.651c-0.002,1.344-0.208,1.579-1.57,1.669c-0.717,0.047-1.438,0.135-2.146-0.13
			c-0.753-0.282-1.212-0.774-1.252-1.594c-0.038-0.79,0.382-1.316,1.036-1.685c0.512-0.288,1.083-0.395,1.651-0.509
			c0.205-0.041,0.479-0.017,0.479-0.323c0.001-0.315-0.224-0.475-0.509-0.515c-0.481-0.068-0.963-0.058-1.429,0.099
			c-0.384,0.13-0.588-0.026-0.7-0.392c-0.121-0.393,0.049-0.582,0.408-0.694c0.773-0.241,1.56-0.326,2.355-0.182
			c0.891,0.161,1.439,0.764,1.563,1.658c0.04,0.286,0.086,0.573,0.099,0.861c0.017,0.361,0.004,0.723,0.004,1.084
			C38.612,53.834,38.616,53.834,38.62,53.834z M36.866,54.136c0.001-0.843-0.029-0.931-0.322-0.972
			c-0.469-0.065-1.155,0.532-1.198,1.042c-0.044,0.523,0.306,0.876,0.872,0.91C37.014,55.165,36.841,54.589,36.866,54.136z"/>
		<path d="M9.624,50.171c1.766,0.019,2.384,1.191,2.471,2.683c0.022,0.37-0.219,0.507-0.536,0.554
			c-0.714,0.107-1.432,0.195-2.142,0.323c-0.231,0.042-0.6-0.023-0.606,0.361c-0.005,0.314,0.223,0.525,0.493,0.661
			c0.535,0.27,1.087,0.137,1.629,0.036c0.31-0.058,0.56-0.072,0.726,0.268c0.221,0.451,0.204,0.791-0.348,0.943
			c-0.631,0.174-1.277,0.292-1.926,0.202c-1.72-0.24-2.615-1.53-2.404-3.412C7.185,50.991,8.014,50.168,9.624,50.171z M9.116,52.776
			c0.346-0.226,1.116,0.159,1.176-0.623c0.034-0.447-0.263-0.826-0.791-0.842c-0.454-0.014-0.953,0.609-0.935,1.105
			C8.578,52.754,8.786,52.796,9.116,52.776z"/>
		<path d="M62.704,53.618c0,0.433-0.037,0.87,0.008,1.299c0.072,0.683-0.217,1.025-0.876,1.152
			c-0.984,0.189-1.963,0.281-2.908-0.124c-1.295-0.555-1.481-2.089-0.39-2.987c0.567-0.467,1.254-0.582,1.94-0.714
			c0.198-0.038,0.493,0.011,0.502-0.291c0.009-0.298-0.206-0.491-0.487-0.545c-0.454-0.087-0.918-0.081-1.355,0.076
			c-0.453,0.162-0.676-0.023-0.816-0.429c-0.173-0.501,0.204-0.565,0.522-0.668c0.796-0.256,1.607-0.312,2.419-0.105
			c0.911,0.231,1.351,0.743,1.42,1.677c0.04,0.55,0.007,1.106,0.007,1.66C62.695,53.618,62.7,53.618,62.704,53.618z M61.053,54.296
			c0.002-0.975-0.025-1.064-0.288-1.128c-0.435-0.106-1.124,0.426-1.214,0.935c-0.09,0.514,0.251,0.957,0.774,1.006
			C61.133,55.186,61.058,54.623,61.053,54.296z"/>
		<path d="M49.631,56.167c-1.187-0.041-1.745-0.603-1.768-1.69c-0.013-0.627,0-1.255-0.007-1.882
			c-0.005-0.467,0.078-0.908-0.48-1.242c-0.342-0.205-0.348-0.743,0.109-1.022c0.203-0.124,0.336-0.228,0.36-0.482
			c0.067-0.702,0.754-1.241,1.435-1.15c0.375,0.05,0.345,0.344,0.363,0.605c0.031,0.452-0.157,1.007,0.63,1.036
			c0.245,0.009,0.228,0.333,0.226,0.548c-0.002,0.251-0.04,0.518-0.332,0.573c-0.528,0.098-0.53,0.472-0.524,0.875
			c0.007,0.507,0.001,1.014,0.002,1.521c0.001,0.486-0.05,0.977,0.629,1.114c0.283,0.057,0.227,0.388,0.222,0.625
			c-0.006,0.269-0.128,0.469-0.407,0.522C49.9,56.154,49.706,56.16,49.631,56.167z"/>
		<path d="M23.447,56.166c-1.058-0.015-1.701-0.628-1.761-1.675c-0.035-0.601-0.008-1.205-0.014-1.808
			c-0.005-0.494,0.116-1.034-0.472-1.323c-0.036-0.018-0.065-0.076-0.074-0.12c-0.057-0.284-0.153-0.618,0.071-0.829
			c0.617-0.582,0.577-1.906,1.903-1.694c0.337,0.054,0.336,0.292,0.349,0.535c0.025,0.485-0.133,1.051,0.668,1.1
			c0.261,0.016,0.202,0.342,0.206,0.552c0.005,0.253-0.033,0.523-0.331,0.565c-0.539,0.077-0.546,0.444-0.54,0.851
			c0.01,0.603,0.002,1.206,0.009,1.809c0.004,0.298,0.039,0.648,0.369,0.713c0.551,0.109,0.553,0.489,0.49,0.871
			C24.234,56.252,23.755,56.116,23.447,56.166z"/>
		<path d="M53.676,53.243c0.007-2.265,1.542-3.575,3.31-2.935c0.546,0.197,0.647,0.56,0.293,0.987
			c-0.172,0.209-0.369,0.172-0.589,0.138c-0.579-0.089-0.913,0.206-1.08,0.728c-0.197,0.614-0.184,1.23-0.017,1.853
			c0.153,0.571,0.484,0.91,1.09,0.799c0.541-0.099,0.686,0.225,0.781,0.619c0.114,0.471-0.261,0.574-0.58,0.669
			c-1.318,0.395-2.552-0.242-3.005-1.547C53.719,54.095,53.65,53.618,53.676,53.243z"/>
		<path d="M30.522,53.313c0-0.675,0.021-1.35-0.007-2.024c-0.023-0.57,0.254-0.826,0.775-0.942c0.569-0.127,1.139-0.2,1.72-0.171
			c0.277,0.014,0.654-0.048,0.644,0.378c-0.008,0.353-0.071,0.806-0.546,0.801c-0.679-0.006-0.72,0.382-0.713,0.892
			c0.014,1.036-0.019,2.073,0.009,3.108c0.021,0.749-0.433,0.779-0.991,0.785c-0.574,0.006-0.929-0.135-0.899-0.804
			C30.546,54.664,30.522,53.988,30.522,53.313z"/>
		<path d="M51.097,53.163c0.001-0.748,0.006-1.495-0.001-2.243c-0.004-0.456,0.191-0.627,0.66-0.632
			c1.213-0.011,1.214-0.031,1.214,1.21c0,1.278-0.021,2.557,0.008,3.834c0.015,0.666-0.316,0.82-0.896,0.807
			c-0.562-0.013-1.016-0.073-0.991-0.807C51.116,54.611,51.096,53.887,51.097,53.163z"/>
		<path d="M20.405,53.131c0,0.771-0.013,1.542,0.004,2.313c0.015,0.688-0.446,0.683-0.928,0.69c-0.486,0.008-0.86-0.074-0.854-0.692
			c0.013-1.518,0.018-3.036-0.001-4.554c-0.009-0.708,0.468-0.587,0.892-0.586c0.425,0,0.911-0.119,0.891,0.588
			C20.388,51.637,20.405,52.384,20.405,53.131z"/>
		<path d="M45.496,47.922c0.21,0.002,0.447,0.015,0.56,0.229c0.127,0.24-0.062,0.407-0.212,0.559
			c-0.32,0.324-0.629,0.664-0.981,0.951c-0.232,0.189-0.565,0.226-0.809,0.039c-0.258-0.198-0.006-0.434,0.062-0.648
			C44.332,48.383,44.683,47.875,45.496,47.922z"/>
		<path d="M19.517,47.867c0.579,0.024,0.904,0.286,0.886,0.849c-0.018,0.569-0.415,0.823-0.911,0.809
			c-0.485-0.014-0.916-0.276-0.918-0.827C18.572,48.095,19.025,47.911,19.517,47.867z"/>
		<path d="M52.006,49.531c-0.435-0.045-0.846-0.252-0.883-0.795c-0.038-0.556,0.34-0.814,0.857-0.859
			c0.559-0.048,0.986,0.311,0.988,0.802C52.97,49.137,52.572,49.515,52.006,49.531z"/>
	</g>
</g>
</svg>
