<?xml version="1.0" encoding="utf-8"?>
<!-- Generator: Adobe Illustrator 17.0.0, SVG Export Plug-In . SVG Version: 6.00 Build 0)  -->
<!DOCTYPE svg PUBLIC "-//W3C//DTD SVG 1.1//EN" "http://www.w3.org/Graphics/SVG/1.1/DTD/svg11.dtd">
<svg version="1.1" id="Layer_1" xmlns="http://www.w3.org/2000/svg" xmlns:xlink="http://www.w3.org/1999/xlink" x="0px" y="0px"
	 width="66.932px" height="70.869px" viewBox="0 0 66.932 70.869" enable-background="new 0 0 66.932 70.869" xml:space="preserve">
<g>
	<g>
		<path fill="#FFFF00" d="M9.515,70.869h47.902c5.233,0,9.515-4.282,9.515-9.515V9.515C66.932,4.282,62.651,0,57.417,0H9.515
			C4.282,0,0,4.282,0,9.515v51.84C0,66.588,4.282,70.869,9.515,70.869z"/>
	</g>
	<g>
		<g>
			<path fill="#1F1A17" d="M55.392,30.038c0.071,0.375-0.223,0.339-0.404,0.374c-2.03,0.394-4.061,0.777-6.093,1.161
				c-4.045,0.765-8.089,1.528-12.134,2.292c-0.096,0.018-0.197,0.025-0.286,0.061c-0.52,0.206-0.703,0.03-0.811-0.523
				c-1.18-6.054-2.388-12.103-3.602-18.15c-0.06-0.3-0.04-0.403,0.282-0.464c5.771-1.086,11.539-2.184,17.308-3.279
				c0.498-0.095,1.009-0.147,1.492-0.294c0.434-0.133,0.519,0.043,0.591,0.411c1.202,6.069,2.415,12.136,3.625,18.203
				C55.377,29.906,55.384,29.984,55.392,30.038z"/>
			<path fill="#1F1A17" d="M34.692,34.546c-0.518-0.454-0.97-0.827-1.396-1.226c-2.295-2.151-4.987-2.587-7.956-1.874
				c-3.356,0.806-6.231,2.551-8.96,4.581c-0.578,0.43-1.138,0.884-1.773,1.379c-0.201-1.017-0.397-1.981-0.581-2.947
				c-0.964-5.044-1.917-10.091-2.898-15.132c-0.108-0.556-0.021-0.896,0.445-1.271c3.008-2.421,6.277-4.311,10.104-5.085
				c2.051-0.415,4.11-0.486,6.156,0.06c0.628,0.167,1.219,0.419,1.751,0.797c0.738,0.524,1.232,1.152,1.417,2.109
				C32.191,22.109,33.44,28.269,34.692,34.546z"/>
			<path fill="#FFFF00" d="M32.001,30.459c-1.396-1.15-2.981-1.136-4.534-1.119c-2.934,0.033-5.557,1.138-8.072,2.532
				c-1.041,0.577-2.058,1.2-3.061,1.841c-0.381,0.244-0.506,0.272-0.601-0.237c-0.786-4.222-1.527-8.454-2.444-12.648
				c-0.282-1.291,0.097-1.911,1.091-2.594c2.714-1.865,5.597-3.259,8.906-3.621c1.643-0.18,3.277-0.191,4.838,0.506
				c0.614,0.274,0.965,0.663,1.104,1.372c0.883,4.5,1.818,8.99,2.733,13.484C31.988,30.107,31.984,30.244,32.001,30.459z"/>
		</g>
		<g>
			<g>
				<path fill="#1F1A17" d="M41.86,51.353c-0.195,0-0.39,0-0.586,0c-1.253,0-1.413-0.202-1.194-1.458
					c0.03-0.169,0.083-0.235,0.251-0.235c0.996,0.003,1.991,0.001,2.987,0c0.02,0,0.045-0.007,0.058,0.003
					c0.484,0.364,0.132,0.877,0.229,1.312c0.057,0.255-0.039,0.397-0.34,0.384C42.798,51.339,42.329,51.353,41.86,51.353z"/>
				<path fill="#1F1A17" d="M12.956,52.302c-1.057-0.319-2.087-0.52-3.149-0.479c-0.252,0.01-0.507,0.036-0.753,0.09
					c-0.312,0.068-0.639,0.179-0.65,0.566c-0.012,0.397,0.339,0.509,0.63,0.591c0.524,0.149,1.066,0.235,1.595,0.366
					c0.378,0.093,0.754,0.201,1.121,0.33c1.129,0.4,1.762,1.196,1.823,2.4c0.062,1.215-0.396,2.18-1.486,2.78
					c-1.36,0.748-2.852,0.758-4.34,0.685c-0.875-0.043-1.75-0.148-2.613-0.325c-0.32-0.065-0.52-0.154-0.485-0.556
					c0.045-0.524,0.029-1.056,0.005-1.583c-0.017-0.365,0.029-0.475,0.438-0.331c1.058,0.372,2.16,0.524,3.284,0.491
					c0.393-0.012,0.785-0.047,1.134-0.247c0.436-0.251,0.441-0.652,0.002-0.904c-0.517-0.298-1.115-0.34-1.682-0.476
					c-0.551-0.132-1.1-0.258-1.617-0.499c-1.022-0.477-1.543-1.289-1.575-2.406c-0.033-1.151,0.416-2.052,1.452-2.612
					c1.045-0.565,2.191-0.672,3.349-0.695c1.057-0.021,2.105,0.086,3.145,0.282c0.237,0.044,0.388,0.082,0.379,0.382
					C12.941,50.852,12.956,51.553,12.956,52.302z"/>
				<path fill="#1F1A17" d="M44.555,52.139c1.063,0,2.135,0.006,3.207-0.004c0.269-0.002,0.304,0.143,0.344,0.36
					c0.272,1.476,0.559,2.949,0.86,4.52c0.274-0.575,0.275-1.124,0.39-1.641c0.198-0.894,0.345-1.801,0.5-2.704
					c0.062-0.36,0.154-0.572,0.618-0.546c0.95,0.052,1.905,0.016,2.906,0.016c-0.721,2.39-1.428,4.719-2.122,7.051
					c-0.079,0.264-0.226,0.314-0.471,0.312c-1.251-0.01-2.503-0.006-3.754-0.003c-0.201,0-0.383,0.014-0.458-0.246
					c-0.675-2.34-1.358-4.677-2.038-7.016C44.532,52.222,44.543,52.202,44.555,52.139z"/>
				<path fill="#1F1A17" d="M27.055,53.307c0.516-0.592,1.048-1.037,1.809-1.127c0.097-0.011,0.193-0.03,0.29-0.037
					c0.781-0.05,0.816-0.016,0.802,0.775c-0.007,0.391-0.027,0.782-0.018,1.172c0.007,0.267-0.074,0.318-0.342,0.279
					c-1.425-0.21-2.294,0.549-2.288,1.968c0.004,0.899-0.013,1.798,0.008,2.697c0.008,0.336-0.044,0.487-0.434,0.473
					c-0.898-0.031-1.798-0.023-2.696-0.002c-0.332,0.008-0.426-0.091-0.423-0.425c0.015-2.15,0.015-4.299,0-6.449
					c-0.002-0.349,0.072-0.481,0.449-0.467c0.781,0.03,1.564,0.035,2.344-0.001c0.431-0.02,0.551,0.14,0.504,0.534
					C27.035,52.897,27.055,53.103,27.055,53.307z"/>
				<path fill="#1F1A17" d="M40.085,55.858c0-1.074,0.012-2.148-0.007-3.222c-0.006-0.342,0.063-0.485,0.445-0.473
					c0.897,0.029,1.797,0.021,2.694,0.003c0.313-0.006,0.399,0.099,0.398,0.403c-0.011,2.187-0.011,4.374,0,6.561
					c0.001,0.279-0.076,0.377-0.359,0.373c-0.937-0.014-1.875-0.022-2.812,0.001c-0.349,0.009-0.365-0.16-0.363-0.424
					C40.09,58.006,40.085,56.932,40.085,55.858z"/>
				<path fill="#1F1A17" d="M61.832,54.959c-0.028-1.304-0.673-2.172-1.926-2.573c-1.544-0.494-3.123-0.437-4.699-0.161
					c-0.943,0.165-0.94,0.178-0.94,1.122c0,1.041,0,1.041,0.953,0.743c0.112-0.035,0.224-0.072,0.338-0.096
					c0.871-0.182,1.741-0.278,2.584,0.112c0.283,0.131,0.536,0.399,0.462,0.681c-0.082,0.315-0.427,0.089-0.654,0.099
					c-0.194,0.009-0.39-0.037-0.585-0.036c-0.983,0.007-1.963,0.066-2.829,0.598c-0.93,0.571-1.192,1.455-1.056,2.483
					c0.113,0.851,0.695,1.409,1.684,1.644c1.297,0.307,2.438,0.078,3.402-1.128c0,0.264,0.016,0.383-0.003,0.496
					c-0.085,0.505,0.144,0.623,0.615,0.598c0.742-0.039,1.488-0.024,2.231-0.004c0.314,0.009,0.448-0.053,0.442-0.409
					C61.83,57.739,61.863,56.348,61.832,54.959z M58.56,57.02c-0.192,0.589-0.663,0.899-1.247,0.826
					c-0.34-0.042-0.601-0.173-0.655-0.55c-0.052-0.367,0.067-0.653,0.407-0.829c0.304-0.158,0.633-0.183,0.889-0.17
					C58.698,56.266,58.772,56.369,58.56,57.02z"/>
				<path fill="#1F1A17" d="M38.802,54.894c-0.027-1.188-0.593-2.081-1.73-2.47c-1.828-0.626-3.688-0.537-5.545-0.079
					c-0.177,0.044-0.275,0.102-0.273,0.3c0.007,0.574,0.002,1.147,0.002,1.781c0.674-0.316,1.289-0.502,1.93-0.577
					c0.705-0.083,1.409-0.082,2.042,0.315c0.226,0.142,0.414,0.393,0.342,0.63c-0.083,0.274-0.373,0.073-0.566,0.067
					c-1.157-0.04-2.314-0.078-3.381,0.485c-0.857,0.452-1.373,1.486-1.228,2.411c0.156,0.999,0.747,1.594,1.804,1.813
					c1.276,0.265,2.398,0.038,3.32-1.171c0,0.283,0.017,0.403-0.003,0.516c-0.087,0.504,0.135,0.62,0.611,0.594
					c0.761-0.042,1.526-0.024,2.289-0.005c0.296,0.007,0.407-0.059,0.403-0.383C38.8,57.712,38.834,56.302,38.802,54.894z
					 M34.45,57.821c-0.373,0.004-0.724-0.057-0.811-0.493c-0.093-0.461,0.079-0.794,0.55-0.952c0.378-0.127,0.768-0.103,1.155-0.119
					c0.151-0.006,0.236,0.033,0.259,0.223C35.683,57.152,35.129,57.811,34.45,57.821z"/>
				<path fill="#1F1A17" d="M22.474,54.986c-0.018-1.336-0.644-2.193-1.932-2.62c-1.502-0.499-3.039-0.45-4.574-0.177
					c-1.048,0.186-1.045,0.201-1.045,1.276c0,0.927-0.001,0.923,0.896,0.643c0.93-0.29,1.869-0.4,2.813-0.071
					c0.36,0.125,0.683,0.401,0.586,0.764c-0.08,0.296-0.476,0.094-0.726,0.077c-1.065-0.072-2.114-0.023-3.094,0.443
					c-0.948,0.45-1.396,1.344-1.289,2.473c0.082,0.866,0.586,1.474,1.52,1.716c1.336,0.347,2.563,0.225,3.581-1.133
					c0,0.274,0.016,0.386-0.003,0.491c-0.091,0.508,0.088,0.682,0.622,0.643c0.739-0.053,1.485-0.029,2.228-0.006
					c0.321,0.01,0.435-0.067,0.43-0.412C22.467,57.723,22.493,56.354,22.474,54.986z M19.25,56.614
					c-0.017,0.73-0.511,1.259-1.15,1.252c-0.518-0.006-0.803-0.264-0.801-0.723c0.004-0.607,0.522-0.88,1.592-0.867
					C19.159,56.279,19.315,56.331,19.25,56.614z"/>
			</g>
			<g>
				<path fill="#1F1A17" d="M14.626,43.073c0-0.94,0.012-1.88-0.007-2.819c-0.007-0.333,0.044-0.488,0.437-0.482
					c1.605,0.023,3.21,0.017,4.816,0.002c0.318-0.003,0.436,0.066,0.442,0.414c0.02,1.181,0.035,1.18-1.135,1.18
					c-0.568,0-1.137,0.028-1.703-0.009c-0.435-0.029-0.404,0.216-0.41,0.508c-0.005,0.288,0.004,0.475,0.39,0.459
					c0.743-0.032,1.488,0.005,2.231-0.016c0.334-0.009,0.483,0.046,0.485,0.438c0.004,1.109,0.024,1.109-1.087,1.109
					c-0.548,0-1.097,0.021-1.644-0.007c-0.408-0.021-0.37,0.226-0.371,0.489c-0.001,0.265-0.032,0.501,0.372,0.49
					c0.841-0.024,1.684,0.008,2.525-0.015c0.335-0.009,0.422,0.094,0.423,0.426c0.005,1.141,0.019,1.141-1.121,1.141
					c-1.37,0-2.741-0.021-4.111,0.012c-0.456,0.011-0.558-0.13-0.542-0.56C14.649,44.914,14.626,43.993,14.626,43.073z"/>
				<path fill="#1F1A17" d="M31.519,44.026c-0.001-0.195-0.018-0.393,0.003-0.586c0.043-0.392-0.023-0.661-0.512-0.568
					c-0.245,0.046-0.361-0.045-0.342-0.312c0.018-0.253,0.016-0.508,0-0.761c-0.016-0.268,0.11-0.353,0.35-0.312
					c0.42,0.071,0.575-0.116,0.498-0.515c-0.092-0.48,0.104-0.704,0.582-0.797c0.475-0.092,0.94-0.253,1.399-0.414
					c0.263-0.092,0.361-0.044,0.345,0.239c-0.013,0.214,0.015,0.431-0.007,0.644c-0.058,0.569-0.005,1.015,0.76,0.845
					c0.224-0.05,0.318,0.079,0.31,0.3c-0.007,0.195-0.024,0.394,0.003,0.585c0.06,0.427-0.131,0.565-0.525,0.499
					c-0.424-0.072-0.615,0.073-0.552,0.53c0.037,0.268,0.005,0.546,0.01,0.819c0.008,0.463,0.183,0.766,0.71,0.675
					c0.307-0.053,0.349,0.091,0.359,0.355c0.04,1.036,0.015,1.073-1.062,1.17c-0.271,0.024-0.539,0.057-0.816,0.024
					c-0.973-0.116-1.472-0.629-1.511-1.599C31.51,44.574,31.52,44.3,31.519,44.026z"/>
				<path fill="#1F1A17" d="M44.092,42.272c0.4-0.573,0.886-0.816,1.524-0.806c0.286,0.004,0.389,0.098,0.36,0.374
					c-0.014,0.135-0.008,0.274-0.002,0.41c0.019,0.41,0.114,0.767-0.587,0.666c-0.664-0.096-1.156,0.493-1.172,1.184
					c-0.014,0.606-0.021,1.213,0.003,1.818c0.013,0.342-0.059,0.499-0.445,0.473c-0.506-0.035-1.017-0.028-1.524-0.002
					c-0.324,0.017-0.388-0.112-0.386-0.405c0.013-1.369,0.013-2.737,0-4.106c-0.003-0.302,0.079-0.422,0.394-0.398
					c0.33,0.026,0.667,0.032,0.996,0C43.81,41.425,44.244,41.473,44.092,42.272z"/>
				<path fill="#201B18" d="M30.084,43.938c0,0.684-0.012,1.369,0.006,2.053c0.008,0.307-0.093,0.411-0.402,0.397
					c-0.527-0.023-1.056-0.024-1.583,0.001c-0.304,0.014-0.354-0.115-0.352-0.377c0.009-1.388,0.01-2.776-0.001-4.164
					c-0.002-0.274,0.069-0.381,0.361-0.368c0.527,0.023,1.056,0.025,1.583,0c0.322-0.015,0.4,0.112,0.393,0.407
					C30.074,42.569,30.084,43.254,30.084,43.938z"/>
				<path fill="#1F1A17" d="M26.869,40.242c0.002-0.333-0.043-0.501-0.437-0.47c-0.485,0.039-0.977,0.031-1.464,0.002
					c-0.34-0.02-0.437,0.097-0.425,0.427c0.023,0.615,0.007,1.232,0.007,1.901c-0.115-0.069-0.167-0.09-0.205-0.125
					c-1.16-1.09-2.843-0.623-3.265,0.903c-0.143,0.518-0.165,1.043-0.091,1.567c0.17,1.206,0.767,1.847,1.795,1.994
					c0.8,0.114,1.44-0.121,1.896-0.959c0.023,0.9,0.023,0.9,0.804,0.9c0.313,0,0.628-0.026,0.937,0.007
					c0.378,0.04,0.452-0.114,0.449-0.462C26.854,44.031,26.856,42.136,26.869,40.242z M24.578,44.349
					c-0.066,0.304-0.205,0.554-0.571,0.556c-0.364,0.002-0.533-0.229-0.57-0.545c-0.037-0.307-0.031-0.621-0.017-0.931
					c0.016-0.355,0.204-0.612,0.57-0.618c0.371-0.006,0.54,0.265,0.592,0.605c0.023,0.153,0.022,0.311,0.032,0.467
					C24.603,44.039,24.611,44.199,24.578,44.349z"/>
				<path fill="#1F1A17" d="M38.863,41.427c-0.195-0.015-0.389-0.032-0.631-0.052c-0.305,0.029-0.658,0.038-1.003,0.099
					c-1.287,0.229-1.961,0.993-2.03,2.27c-0.067,1.254,0.599,2.208,1.792,2.558c0.628,0.184,1.265,0.188,1.913,0.118
					c1.501-0.162,2.394-1.13,2.374-2.603C41.26,42.392,40.408,41.55,38.863,41.427z M38.723,44.665
					c-0.059,0.256-0.218,0.424-0.485,0.422c-0.276-0.003-0.414-0.206-0.464-0.447c-0.047-0.227-0.048-0.464-0.074-0.753
					c0.018-0.197,0.025-0.451,0.067-0.7c0.043-0.253,0.197-0.427,0.47-0.438c0.278-0.01,0.431,0.158,0.493,0.41
					C38.852,43.661,38.837,44.164,38.723,44.665z"/>
				<path fill="#1F1A17" d="M51.864,43.35c-0.01-0.89-0.434-1.506-1.286-1.745c-1.128-0.315-2.273-0.298-3.416-0.026
					c-0.234,0.056-0.328,0.162-0.317,0.401c0.015,0.307,0.004,0.615,0.004,0.997c0.509-0.198,0.908-0.376,1.343-0.374
					c0.46,0.001,0.95-0.106,1.346,0.243c0.116,0.102,0.247,0.241,0.173,0.404c-0.072,0.158-0.242,0.07-0.367,0.05
					c-0.712-0.117-1.408-0.032-2.071,0.226c-0.72,0.281-1.059,0.946-0.953,1.76c0.079,0.608,0.572,1.019,1.305,1.141
					c0.81,0.135,1.49-0.078,2.157-0.884c-0.224,0.852,0.154,0.89,0.642,0.845c0.349-0.032,0.705-0.026,1.055,0
					c0.315,0.023,0.4-0.093,0.394-0.397C51.855,45.111,51.874,44.23,51.864,43.35z M48.971,45.245
					c-0.319,0.007-0.556-0.091-0.531-0.452c0.041-0.584,0.5-0.541,0.853-0.568c0.231,0.007,0.459-0.097,0.455,0.242
					C49.744,44.882,49.397,45.235,48.971,45.245z"/>
			</g>
		</g>
	</g>
</g>
</svg>
