<?xml version="1.0" encoding="utf-8"?>
<!-- Generator: Adobe Illustrator 17.0.0, SVG Export Plug-In . SVG Version: 6.00 Build 0)  -->
<!DOCTYPE svg PUBLIC "-//W3C//DTD SVG 1.1//EN" "http://www.w3.org/Graphics/SVG/1.1/DTD/svg11.dtd">
<svg version="1.1" id="Layer_1" xmlns="http://www.w3.org/2000/svg" xmlns:xlink="http://www.w3.org/1999/xlink" x="0px" y="0px"
	 width="72.671px" height="72.671px" viewBox="0 0 72.671 72.671" enable-background="new 0 0 72.671 72.671" xml:space="preserve">
<g>
	<g>
		<path fill="#FFFFFF" d="M11.525,71.997c-5.983,0-10.851-4.869-10.851-10.853V11.525c0-5.983,4.868-10.852,10.851-10.852h49.618
			c5.984,0,10.853,4.868,10.853,10.852v49.618c0,5.984-4.869,10.853-10.853,10.853H11.525z"/>
		<path fill="#FFFFFF" d="M61.144,1.348c5.621,0,10.179,4.557,10.179,10.178v49.618c0,5.621-4.558,10.179-10.179,10.179H11.525
			c-5.621,0-10.178-4.558-10.178-10.179V11.525c0-5.621,4.557-10.178,10.178-10.178H61.144 M61.144,0H11.525C5.17,0,0,5.17,0,11.525
			v49.618C0,67.5,5.17,72.671,11.525,72.671h49.618c6.356,0,11.527-5.171,11.527-11.527V11.525C72.671,5.17,67.5,0,61.144,0
			L61.144,0z"/>
	</g>
	<g>
		<defs>
			<path id="SVGID_1_" d="M4.947,2.24C3.958,2.848,3.009,3.663,2.24,4.758v62.965c0.608,0.988,1.423,1.938,2.516,2.707h62.969
				c0.988-0.607,1.938-1.422,2.706-2.515V4.947c-0.607-0.989-1.423-1.938-2.517-2.707H4.947z"/>
		</defs>
		<clipPath id="SVGID_2_">
			<use xlink:href="#SVGID_1_"  overflow="visible"/>
		</clipPath>
		<path clip-path="url(#SVGID_2_)" fill="#00815E" d="M60.123,2.24H12.548C6.864,2.24,2.24,6.864,2.24,12.548v47.574
			c0,5.684,4.625,10.309,10.309,10.309h47.574c5.684,0,10.309-4.625,10.309-10.309V12.548C70.432,6.864,65.807,2.24,60.123,2.24
			 M60.123,4.619c4.38,0,7.929,3.55,7.929,7.929v47.574c0,4.38-3.549,7.93-7.929,7.93H12.548c-4.38,0-7.93-3.55-7.93-7.93V12.548
			c0-4.379,3.55-7.929,7.93-7.929H60.123z"/>
		<path clip-path="url(#SVGID_2_)" fill="#00815E" d="M39.743,52.739c-4.577-0.659-9.118-2.406-10.559-6.598
			c2.231-0.331,10.253-1.314,10.253-1.314l-0.516-4.187c0,0-7.936,1.047-10.13,1.308c0.393-3.519,3.1-6.276,7.066-7.03l-0.779-4.146
			c-7.728,1.343-11.757,7.996-10.523,14.716c1.354,7.379,7.38,10.129,13.929,11.265L39.743,52.739z M9.214,54.016v-4.208
			c5.522,0.392,9.671-1.462,9.06-4.607c-0.653-3.356-6.376-5.874-7.401-10.021c-1.112-4.492,1.395-9.76,10.714-9.201l-0.01,4.124
			c-5.137-0.577-7.321,1.771-6.141,4.597c1.441,3.45,6.616,4.694,7.598,9.999C24.026,50.055,19.039,54.437,9.214,54.016"/>
		<path clip-path="url(#SVGID_2_)" fill="#007A4D" d="M50.991,16.116c-2.01-0.836-4.535,0.623-5.625,3.241
			c-1.096,2.621-0.334,5.417,1.679,6.261c2.012,0.833,4.528-0.606,5.609-3.228C53.753,19.761,53.004,16.948,50.991,16.116
			 M63.457,28.588c-4.988-0.108-10.972,2.838-14.016,7.456c-2.822,4.294-2.42,9.694-1.78,17.431h-6.604
			c1.365-9.256,1.194-18.73-2.347-26.307l4.367-2.728c1.179,2.139,2.402,5.633,2.839,7.729c3.056-4.518,10.721-8.973,17.542-8.602
			V28.588z"/>
		<path clip-path="url(#SVGID_2_)" fill="#007A4D" d="M40.449,20.048c-0.329,0-0.64,0.252-0.64,0.808
			c0,0.528,0.233,0.832,0.644,0.832c0.328,0,0.632-0.252,0.632-0.836C41.085,20.352,40.869,20.048,40.449,20.048 M40.409,21.895
			c-0.528,0-0.864-0.324-0.864-1.02c0-0.556,0.336-1.032,0.932-1.032c0.465,0,0.867,0.256,0.867,0.996
			C41.344,21.419,40.993,21.895,40.409,21.895 M38.733,21.863v-1.292c0-0.332-0.092-0.528-0.405-0.528
			c-0.375,0-0.639,0.368-0.639,0.868v0.951h-0.252v-1.988h0.255c0,0.136-0.011,0.336-0.035,0.46l0.008,0.004
			c0.112-0.304,0.367-0.499,0.719-0.499c0.46,0,0.6,0.283,0.6,0.64v1.384H38.733z M36.417,19.875h0.252v1.988h-0.252V19.875z
			 M36.545,19.496c-0.1,0-0.18-0.08-0.18-0.18c0-0.1,0.08-0.18,0.18-0.18c0.1,0,0.18,0.076,0.18,0.18
			C36.725,19.415,36.645,19.496,36.545,19.496 M34.985,21.895c-0.153,0-0.304-0.012-0.424-0.04l0.008-0.24
			c0.128,0.037,0.292,0.064,0.448,0.064c0.308,0,0.524-0.136,0.524-0.364c0-0.508-1.004-0.189-1.004-0.904
			c0-0.324,0.268-0.568,0.76-0.568c0.123,0,0.268,0.016,0.396,0.045l-0.012,0.223c-0.132-0.04-0.281-0.068-0.42-0.068
			c-0.308,0-0.468,0.132-0.468,0.339c0,0.513,1.008,0.208,1.008,0.896C35.801,21.619,35.497,21.895,34.985,21.895 M33.673,21.863
			v-1.292c0-0.332-0.092-0.528-0.405-0.528c-0.375,0-0.64,0.368-0.64,0.868v0.951h-0.252v-1.988h0.256
			c0,0.136-0.012,0.336-0.037,0.46l0.008,0.004c0.112-0.304,0.368-0.499,0.72-0.499c0.46,0,0.6,0.283,0.6,0.64v1.384H33.673z
			 M31.008,20.035c-0.296,0-0.504,0.212-0.559,0.544h1.072C31.529,20.26,31.333,20.035,31.008,20.035 M31.781,20.775h-1.348
			c-0.024,0.644,0.22,0.909,0.683,0.909c0.208,0,0.432-0.056,0.576-0.129l0.024,0.224c-0.181,0.072-0.396,0.116-0.644,0.116
			c-0.591,0-0.908-0.32-0.908-1.02c0-0.591,0.32-1.032,0.859-1.032c0.54,0,0.765,0.373,0.765,0.8
			C31.789,20.671,31.789,20.72,31.781,20.775 M28.125,20.035c-0.296,0-0.504,0.212-0.56,0.544h1.072
			C28.645,20.26,28.449,20.035,28.125,20.035 M28.897,20.775h-1.347c-0.024,0.644,0.22,0.909,0.683,0.909
			c0.208,0,0.432-0.056,0.576-0.129l0.024,0.224c-0.181,0.072-0.397,0.116-0.644,0.116c-0.592,0-0.908-0.32-0.908-1.02
			c0-0.591,0.321-1.032,0.86-1.032c0.54,0,0.764,0.373,0.764,0.8C28.905,20.671,28.905,20.72,28.897,20.775 M26.46,20.103
			c-0.144-0.036-0.284-0.052-0.416-0.052c-0.435,0-0.719,0.26-0.719,0.883c0,0.473,0.16,0.756,0.508,0.756
			c0.428,0,0.627-0.499,0.627-0.856V20.103z M26.457,21.863c0-0.128,0.012-0.331,0.036-0.456l-0.008-0.004
			c-0.108,0.3-0.372,0.492-0.691,0.492c-0.497,0-0.736-0.356-0.736-0.936c0-0.72,0.404-1.108,1.011-1.108
			c0.124,0,0.248,0.008,0.392,0.024v-0.932h0.252v2.919H26.457z M23.361,20.92c-0.796,0-0.967,0.255-0.967,0.451
			c0,0.196,0.136,0.316,0.344,0.316c0.376,0,0.624-0.376,0.624-0.74V20.92z M23.364,21.863c0-0.16,0.004-0.32,0.024-0.436
			l-0.008-0.004c-0.096,0.26-0.356,0.472-0.703,0.472c-0.308,0-0.54-0.156-0.54-0.472c0-0.405,0.424-0.697,1.224-0.697v-0.176
			c0-0.323-0.116-0.503-0.472-0.503c-0.192,0-0.432,0.06-0.608,0.176l-0.028-0.229c0.188-0.088,0.415-0.152,0.683-0.152
			c0.529,0,0.676,0.272,0.676,0.641v0.764c0,0.204,0.004,0.436,0.008,0.616H23.364z M21.288,21.863v-1.292
			c0-0.32-0.076-0.528-0.383-0.528c-0.329,0-0.632,0.328-0.632,0.876v0.943h-0.252v-1.296c0-0.283-0.056-0.523-0.384-0.523
			c-0.347,0-0.628,0.36-0.628,0.876v0.943h-0.252v-1.988h0.256c0,0.136-0.012,0.332-0.036,0.46l0.007,0.004
			c0.113-0.304,0.376-0.499,0.712-0.499c0.473,0,0.557,0.347,0.557,0.492c0.068-0.189,0.283-0.492,0.699-0.492
			c0.373,0,0.589,0.192,0.589,0.644v1.379H21.288z M17.389,20.035c-0.297,0-0.504,0.212-0.56,0.544h1.072
			C17.909,20.26,17.713,20.035,17.389,20.035 M18.161,20.775h-1.348c-0.024,0.644,0.22,0.909,0.684,0.909
			c0.208,0,0.431-0.056,0.575-0.129l0.024,0.224c-0.18,0.072-0.396,0.116-0.643,0.116c-0.592,0-0.909-0.32-0.909-1.02
			c0-0.591,0.32-1.032,0.86-1.032c0.54,0,0.764,0.373,0.764,0.8C18.169,20.671,18.169,20.72,18.161,20.775 M15.841,21.891
			c-0.388,0-0.496-0.176-0.496-0.575v-1.24h-0.456v-0.2h0.452v-0.672l0.252-0.068v0.74h0.612v0.2h-0.612v1.116
			c0,0.38,0.069,0.476,0.316,0.476c0.104,0,0.208-0.013,0.296-0.037v0.224C16.101,21.875,15.965,21.891,15.841,21.891
			 M13.837,21.895c-0.152,0-0.305-0.012-0.424-0.04l0.008-0.24c0.128,0.037,0.292,0.064,0.448,0.064
			c0.307,0,0.524-0.136,0.524-0.364c0-0.508-1.004-0.189-1.004-0.904c0-0.324,0.268-0.568,0.76-0.568
			c0.124,0,0.268,0.016,0.396,0.045l-0.013,0.223c-0.131-0.04-0.279-0.068-0.419-0.068c-0.308,0-0.468,0.132-0.468,0.339
			c0,0.513,1.008,0.208,1.008,0.896C14.653,21.619,14.349,21.895,13.837,21.895 M12.525,19.875h0.252v1.988h-0.252V19.875z
			 M12.652,19.496c-0.099,0-0.18-0.08-0.18-0.18c0-0.1,0.08-0.18,0.18-0.18c0.1,0,0.18,0.076,0.18,0.18
			C12.833,19.415,12.753,19.496,12.652,19.496 M11.093,21.895c-0.152,0-0.304-0.012-0.423-0.04l0.007-0.24
			c0.129,0.037,0.292,0.064,0.448,0.064c0.308,0,0.524-0.136,0.524-0.364c0-0.508-1.004-0.189-1.004-0.904
			c0-0.324,0.268-0.568,0.759-0.568c0.124,0,0.268,0.016,0.397,0.045l-0.012,0.223c-0.132-0.04-0.28-0.068-0.42-0.068
			c-0.308,0-0.468,0.132-0.468,0.339c0,0.513,1.008,0.208,1.008,0.896C11.908,21.619,11.605,21.895,11.093,21.895"/>
	</g>
</g>
</svg>
