<?xml version="1.0" encoding="utf-8"?>
<!-- Generator: Adobe Illustrator 17.0.0, SVG Export Plug-In . SVG Version: 6.00 Build 0)  -->
<!DOCTYPE svg PUBLIC "-//W3C//DTD SVG 1.1//EN" "http://www.w3.org/Graphics/SVG/1.1/DTD/svg11.dtd">
<svg version="1.1" id="Layer_1" xmlns="http://www.w3.org/2000/svg" xmlns:xlink="http://www.w3.org/1999/xlink" x="0px" y="0px"
	 width="71.734px" height="71.734px" viewBox="0 0 71.734 71.734" enable-background="new 0 0 71.734 71.734" xml:space="preserve">
<g>
	<path fill="#FFFFFF" d="M35.868,1.847C54.638,1.846,69.863,17.05,69.887,35.825c0.023,18.788-15.189,34.039-33.978,34.062h-0.043
		c-18.769,0-33.995-15.203-34.019-33.978C1.825,17.12,17.036,1.871,35.825,1.847H35.868z M35.87,0v1.847L35.869,0h-0.046
		C16.045,0.025-0.024,16.134,0,35.912c0.012,9.573,3.749,18.57,10.521,25.334c6.773,6.763,15.773,10.488,25.344,10.488h0.045
		C55.689,71.709,71.759,55.6,71.734,35.823C71.71,16.07,55.621,0,35.87,0"/>
	<path fill="#005480" d="M35.867,1.847c-18.789,0-34.02,15.232-34.02,34.02c0,18.789,15.231,34.02,34.02,34.02
		c18.788,0,34.02-15.231,34.02-34.02C69.887,17.078,54.655,1.847,35.867,1.847"/>
	<path fill="#FFFFFF" d="M63.634,35.832c-0.001-0.822-0.045-1.635-0.117-2.439l-1.233,0.331c0.056,0.697,0.093,1.399,0.094,2.109
		c0.007,5.526-1.688,10.663-4.588,14.918l0.915,0.88C61.815,47.141,63.642,41.697,63.634,35.832"/>
	<path fill="#FFFFFF" d="M9.356,35.899c-0.001-0.711,0.035-1.414,0.089-2.111c-0.426-0.12-0.837-0.236-1.232-0.348
		c-0.071,0.811-0.113,1.631-0.112,2.46c0.007,5.84,1.833,11.261,4.933,15.736c0.154-0.402,0.359-0.846,0.619-1.332
		C10.946,46.155,9.363,41.209,9.356,35.899"/>
	<path fill="#005480" d="M62.159,35.389c0,14.521-11.772,26.293-26.293,26.293c-14.52,0-26.292-11.772-26.292-26.293
		c0-14.521,11.772-26.293,26.292-26.293C50.388,9.096,62.159,20.868,62.159,35.389"/>
	<path fill="#FFFFFF" d="M12.29,26.049c0.398,0.129,0.664,0.377,0.799,0.742c0.134,0.366,0.126,0.782-0.026,1.25
		c-0.212,0.652-0.573,1.105-1.082,1.361l-0.292-0.585c0.369-0.189,0.63-0.516,0.782-0.983c0.093-0.287,0.108-0.528,0.042-0.724
		c-0.066-0.196-0.205-0.328-0.418-0.398c-0.197-0.064-0.368-0.056-0.511,0.024c-0.122,0.069-0.235,0.209-0.341,0.419L11,27.648
		c-0.17,0.344-0.377,0.582-0.62,0.716c-0.27,0.148-0.584,0.163-0.941,0.047c-0.385-0.125-0.652-0.358-0.803-0.697
		c-0.15-0.338-0.152-0.734-0.005-1.184c0.179-0.549,0.492-0.949,0.94-1.197l0.28,0.561c-0.303,0.164-0.519,0.445-0.648,0.843
		c-0.081,0.25-0.081,0.466-0.001,0.649c0.081,0.183,0.222,0.307,0.423,0.372c0.172,0.056,0.327,0.044,0.464-0.036
		c0.138-0.08,0.257-0.221,0.359-0.423l0.236-0.474c0.17-0.343,0.368-0.581,0.592-0.712C11.562,25.943,11.9,25.922,12.29,26.049"/>
	
		<rect x="11.767" y="21.796" transform="matrix(0.4301 -0.9028 0.9028 0.4301 -14.8499 24.6693)" fill="#FFFFFF" width="0.698" height="4.603"/>
	<path fill="#FFFFFF" d="M15.493,20.3c0.349,0.228,0.542,0.536,0.578,0.924c0.035,0.389-0.08,0.789-0.347,1.201
		c-0.372,0.574-0.836,0.92-1.392,1.035l-0.131-0.64c0.404-0.086,0.739-0.335,1.006-0.747c0.164-0.253,0.239-0.483,0.227-0.688
		c-0.013-0.206-0.112-0.37-0.3-0.493c-0.173-0.112-0.339-0.149-0.497-0.109c-0.136,0.035-0.281,0.141-0.436,0.317l-0.36,0.413
		c-0.252,0.288-0.513,0.465-0.781,0.531c-0.299,0.074-0.604,0.008-0.917-0.197c-0.339-0.221-0.537-0.515-0.594-0.881
		c-0.058-0.366,0.043-0.748,0.3-1.146c0.313-0.484,0.718-0.789,1.213-0.913l0.125,0.614c-0.333,0.08-0.614,0.296-0.841,0.647
		c-0.142,0.221-0.198,0.429-0.168,0.627c0.031,0.198,0.135,0.354,0.311,0.469c0.152,0.099,0.303,0.127,0.456,0.085
		c0.153-0.042,0.304-0.147,0.455-0.317l0.349-0.397c0.252-0.288,0.504-0.466,0.753-0.534C14.82,20.01,15.151,20.077,15.493,20.3"/>
	<polygon fill="#FFFFFF" points="16.328,15.314 15.472,16.248 18.404,18.934 17.932,19.449 15,16.763 14.145,17.698 13.682,17.275 
		15.865,14.89 	"/>
	<polygon fill="#FFFFFF" points="22.339,15.508 20.023,17.322 17.184,13.699 19.5,11.885 19.887,12.379 18.12,13.762 18.951,14.821 
		20.457,13.641 20.839,14.129 19.333,15.309 20.186,16.398 21.952,15.014 	"/>
	<polygon fill="#FFFFFF" points="26.807,13.073 26.184,13.391 24.787,10.648 24.861,13.128 24.4,13.363 22.413,11.857 23.81,14.599 
		23.188,14.916 21.1,10.814 21.722,10.497 24.219,12.439 24.095,9.289 24.717,8.971 	"/>
	<path fill="#FFFFFF" d="M31.41,11.728l-0.717,0.197l-0.55-0.808l-1.753,0.48l-0.062,0.975l-0.716,0.197l0.411-4.886l0.543-0.149
		L31.41,11.728z M29.8,10.6l-1.215-1.792l-0.15,2.166L29.8,10.6z"/>
	<path fill="#FFFFFF" d="M37.288,9.037c0.009,0.487-0.001,0.826-0.028,1.016c-0.054,0.371-0.189,0.668-0.406,0.892
		c-0.284,0.293-0.678,0.444-1.182,0.452l-1.617,0.027L33.98,6.821l1.616-0.026c0.504-0.008,0.903,0.13,1.197,0.414
		c0.223,0.216,0.368,0.498,0.434,0.846C37.26,8.236,37.28,8.563,37.288,9.037 M36.59,9.049c-0.007-0.383-0.022-0.651-0.046-0.801
		c-0.038-0.232-0.112-0.407-0.222-0.527c-0.189-0.204-0.451-0.303-0.788-0.297l-0.846,0.013l0.054,3.349l0.847-0.014
		c0.336-0.005,0.594-0.113,0.777-0.323c0.105-0.123,0.174-0.311,0.205-0.566C36.59,9.72,36.596,9.441,36.59,9.049"/>
	<polygon fill="#FFFFFF" points="41.374,11.978 38.471,11.499 39.22,6.957 42.122,7.436 42.021,8.055 39.807,7.689 39.588,9.016 
		41.477,9.328 41.376,9.941 39.487,9.629 39.262,10.994 41.475,11.359 	"/>
	<polygon fill="#FFFFFF" points="46.917,14.027 44.221,12.85 46.063,8.632 48.759,9.808 48.508,10.383 46.451,9.485 45.913,10.718 
		47.667,11.484 47.419,12.052 45.665,11.287 45.112,12.555 47.168,13.452 	"/>
	<polygon fill="#FFFFFF" points="50.73,16.475 50.2,16.116 50.253,12.242 48.438,14.924 47.86,14.533 50.439,10.72 50.969,11.079 
		50.919,14.948 52.731,12.271 53.309,12.662 	"/>
	<path fill="#FFFFFF" d="M54.748,18.469c-0.293,0.298-0.634,0.426-1.021,0.383c-0.387-0.043-0.756-0.237-1.106-0.582
		c-0.488-0.481-0.733-1.006-0.734-1.576l0.654-0.001c0.003,0.414,0.179,0.794,0.529,1.139c0.215,0.211,0.425,0.332,0.629,0.361
		c0.205,0.028,0.386-0.036,0.542-0.196c0.146-0.148,0.214-0.303,0.207-0.468c-0.007-0.14-0.082-0.304-0.223-0.492l-0.332-0.436
		c-0.231-0.306-0.353-0.598-0.363-0.875c-0.012-0.308,0.114-0.595,0.377-0.862c0.284-0.289,0.612-0.425,0.982-0.407
		c0.371,0.017,0.725,0.192,1.063,0.525c0.411,0.405,0.628,0.864,0.65,1.376h-0.627c-0.012-0.344-0.166-0.663-0.464-0.956
		c-0.187-0.185-0.381-0.281-0.581-0.291c-0.199-0.009-0.374,0.062-0.521,0.211c-0.128,0.129-0.186,0.273-0.175,0.431
		c0.01,0.158,0.083,0.329,0.218,0.511l0.319,0.423c0.231,0.306,0.354,0.589,0.372,0.847C55.167,17.866,55.036,18.178,54.748,18.469"
		/>
	
		<rect x="56.228" y="16.885" transform="matrix(0.6166 0.7873 -0.7873 0.6166 36.7966 -37.1851)" fill="#FFFFFF" width="0.698" height="4.603"/>
	<polygon fill="#FFFFFF" points="57.552,24.967 57.234,24.412 58.984,20.954 56.174,22.567 55.827,21.961 59.82,19.67 
		60.138,20.225 58.393,23.679 61.197,22.07 61.544,22.675 	"/>
	<path fill="#FFFFFF" d="M61.272,28.387c-0.509,0.175-0.858,0.277-1.044,0.305c-0.302,0.05-0.585,0.01-0.848-0.118
		c-0.416-0.203-0.703-0.533-0.86-0.989c-0.157-0.452-0.133-0.887,0.071-1.303c0.128-0.263,0.326-0.47,0.593-0.621
		c0.168-0.095,0.505-0.229,1.01-0.403c0.505-0.174,0.853-0.276,1.044-0.305c0.303-0.045,0.586-0.004,0.85,0.124
		c0.416,0.203,0.702,0.531,0.858,0.983c0.157,0.456,0.134,0.893-0.068,1.309c-0.129,0.263-0.326,0.468-0.595,0.615
		C62.118,28.077,61.781,28.212,61.272,28.387 M61.045,27.727c0.371-0.128,0.605-0.215,0.703-0.263
		c0.28-0.128,0.466-0.281,0.56-0.459c0.122-0.229,0.137-0.476,0.046-0.741c-0.091-0.265-0.256-0.45-0.492-0.556
		c-0.183-0.083-0.425-0.088-0.724-0.017c-0.106,0.023-0.345,0.099-0.715,0.226c-0.371,0.128-0.605,0.216-0.703,0.263
		c-0.28,0.128-0.466,0.281-0.56,0.46c-0.122,0.228-0.137,0.476-0.046,0.74c0.092,0.265,0.256,0.45,0.492,0.556
		c0.184,0.083,0.425,0.088,0.724,0.017C60.436,27.93,60.674,27.854,61.045,27.727"/>
	<path fill="#FFFFFF" d="M54.659,27.424c-0.074,0.962-1.022,1.579-1.243,2.475c-0.192,0.778,0.39,1.599,0.354,2.403
		c-0.015,0.353-0.084,0.723-0.178,1.055c-0.062,0.218-0.244,0.517-0.242,0.734c0.004,0.325,0.394,0.486,0.624,0.693
		c0.304,0.273,0.468,0.612,0.72,0.884c0.05,0.054,0.054,0.126,0.107,0.178c0.887-1.06,0.748-4.993,0.577-6.243
		c-0.209-1.523-0.83-1.124-0.721-2.153"/>
	<path fill="#FFFFFF" d="M41.47,18.183c-1.413-2.566-3.864-1.787-6.113-2.364c-1.208-0.31-2.436,0.578-3.548,0.911
		c-1.316,0.394-2.594,0.358-4.064,0.243c0.704,0.227,1.565,0.525,2.245,0.793c-1.313-0.172-3.432,0.321-4.692,0.687
		c-1.663,0.484-2.153,2.691-2.652,3.806c0.846-1.461,1.178-1.675,2.223-2.146c-1.109,1.492-1.193,1.862-1.763,2.985
		c-0.869,1.711-2.244,3.135-3.097,4.877c-0.781,1.594-1.063,3.25-1.132,4.946c-0.068,1.667-0.589,3.932-1.858,5.085
		c0.346,0.077,1.133,0.1,1.614-0.615c0,0.654-1.422,3.037-4.705,4.483c0.742,0.809,2.76,0.899,3.629,0.264
		c-0.823,1.699-2.508,2.891-3.338,4.673c-0.663,1.423-1.08,2.664-1.115,4.195c0.081-0.304,0.187-0.259,0.33-0.244
		c1.063-2.756,3.367-4.836,5.822-6.512c1.753-1.197,5.413-4.054,5.644-9.59c-0.385,0.941-1.846,3.806-4.383,4.614
		c1.447-1.836,3.345-4.96,3.099-9.386c-0.342,0.684-0.855,1.026-1.71,1.539c1.069-0.513,0.582-2.693,0.684-3.634
		c0.17-1.581,0.572-2.402,1.838-3.805c-0.5,0.223-0.484-0.039-1.026,0.171c1.711-1.283,2.137-4.324,4.394-5.208
		c1.505-0.59,3.537-0.019,4.921-1.115c-1.076,0.192-1.954-0.397-2.191-0.346c2.461-0.116,6.228-2.192,8.58,0.23
		C40.259,18.241,40.886,18.063,41.47,18.183"/>
	<path fill="#FFFFFF" d="M45.202,32.581c0.01-0.076-0.048-0.156-0.141-0.129c-1.42,0.406-2.815,1.139-3.853,2.198
		c-0.41,0.418-0.756,0.879-0.754,1.481c0.003,0.672,0.656,0.776,1.156,0.879c0.421,0.088,0.692-0.382,0.41-0.704
		c-0.562-0.642,2.835-2.658,3.289-2.928C45.673,33.16,45.512,32.679,45.202,32.581"/>
	<path fill="#FFFFFF" d="M53.008,35.89c-1.942-0.212-2.766,2.508-4.55,3.215c-0.76,0.3-1.699,0.234-2.283,0.805
		c-0.004-1.985,0.768-3.426,2.229-4.349l-0.538,1.614c0.736-1.351,3.043-1.761,4.207-2.765c0.807-0.696,1.206-1.836,1.01-2.884
		c-0.197-1.048-1.058-1.797-1.987-2.321c-1-0.565-1.406,0.032-2.076-0.179c-0.67-0.212-1.121-0.797-1.115-1.5
		c1.97,0.65,4.642,0.362,6.458-0.642c-0.994-1.301-3.04-2.136-4.599-2.634c-1.743-0.556-3.153-1.186-3.376-1.706
		c-0.103-0.24,0.792-1.753-0.816-2.151c-1.938-0.48-3.904-1.617-5.854-1.841c-0.675-0.078-1.391-0.107-1.998,0.2
		c-0.677,0.342-1.247,1.096-1.996,0.97l0.679,0.61c-1.532,0.488-3.419-0.266-4.448-0.505c0.206-0.171,0.401-0.356,0.589-0.568
		c0.274-0.309,0.386-0.368-0.01-0.193c-1.349,0.598-2.507,0.845-3.464,1.419c-0.487,0.292-1.238,0.546-1.353,1.205
		c-0.106,0.606-0.091,1.213,0.001,1.81c0.099,0.266,0.177,0.57,0.18,0.843c0.015,0.058,0.029,0.116,0.046,0.174
		c0.17-0.349,0.3-0.684,0.275-1.105c-0.026-0.426-0.129-0.863-0.049-1.288c0.235-1.239,2.039-1.195,2.982-0.952
		c0.96-0.086,1.917,0.025,2.916,0.115c0.354,0.075,0.713,0.128,1.081,0.158c0.027,0.002,0.058-0.001,0.092-0.009
		c-0.218,0.171-0.44,0.345-0.657,0.516c-0.495,0.277-1.013,0.519-1.549,0.731c-0.246,0.097-0.284,0.455,0,0.537
		c0.271,0.079,0.527,0.14,0.792,0.167c-0.009,0.01-0.019,0.02-0.028,0.03c-0.799,0.516-1.488,1.574-1.488,1.574
		c-0.636,1.058-1.018,1.795-1.207,2.368c-0.242,0.725,0.291,1.476,1.056,1.484c0.318,0.004,0.623,0.009,0.825,0.029
		c-0.999,2.044-1.522,4.319-1.517,6.594c1.18-2.303,2.289-3.867,4.558-4.866c-1.461,1.191-1.382,3.773-1.461,4.267
		c4.113-2.691,6.651-2.806,10.457-2.384c-4.421,1.153-4.536,3.883-3.729,7.036l0.615-0.73c-0.273,1.051,0.399,1.602,1.411,1.994
		c-0.072-1.393,0.428-2.587,1.626-3.301c-0.403,0.79-0.566,1.411-0.43,2.321c0.06,0.402,0.248,0.782,0.557,1.046
		c0.654,0.56,1.354,0.281,2.019,0.095c1.314-0.37,2.256-0.487,2.401,0.753c-0.028,1.21-0.831,1.952-1.889,1.917
		c0.317,0.159,1.685,0.311,2.451-0.403c-0.447,0.836-1.18,1.403-1.921,1.774c1.63-0.277,2.719-1.272,3.592-2.676
		c-0.354,1.444-0.217,2.131,0.136,2.62c-0.045-0.946,0.348-2.247,1.44-3.174c1.068-0.907,1.602-2.428,1.549-3.798
		C54.807,36.913,54.047,36.003,53.008,35.89 M42.864,26.236c-0.863-0.228-1.28-0.881-2.227-0.63
		c-0.404,0.107-0.65,0.338-1.111,0.317c-0.45-0.021-0.704-0.416-1.187-0.374c0.547-0.895,2.136-1.543,3.338-1.829
		c0.384,0.73-0.222,1.273,0.726,1.773c0.26,0.137,0.924,0.15,1.052,0.351C43.717,26.253,43.254,26.34,42.864,26.236 M42.549,21.969
		c-0.443-0.222-0.705-0.483-1.15-0.612c-0.396-0.115-1.559,0.111-1.744-0.111c-0.071-0.086-0.1-0.145-0.097-0.185
		c-0.012-0.024-0.026-0.047-0.032-0.075c-0.123-0.569,1.989-0.289,2.435-0.08c0.028-0.009,0.051-0.014,0.07-0.013
		c0.525,0.053-0.061,0.007,0.185,0.371c0.445,0.658,1.692,0.949,1.669,1.818C43.568,23.138,43.364,22.377,42.549,21.969"/>
	<path fill="#FFFFFF" d="M20.944,60.812l-0.001-1.018c-0.203,0.294-0.452,0.611-0.724,0.793c-0.362,0.25-0.746,0.409-1.357,0.409
		c-0.996,0.002-1.63-0.292-2.242-0.993c-0.476-0.565-0.726-1.47-0.728-2.669c-0.001-1.087,0.382-2.302,1.105-2.936
		c0.587-0.521,1.357-0.921,2.737-0.924l1.063-0.001l-0.002-1.283c-0.001-0.883-0.409-1.38-1.156-1.379
		c-0.362,0.001-0.611,0.137-0.791,0.341c-0.249,0.272-0.362,0.611-0.361,1.109l-2.211,0.003c-0.075-1.046,0.081-1.833,0.827-2.581
		c0.565-0.566,1.538-0.975,2.511-0.976c0.996-0.001,1.924,0.246,2.536,0.879c0.635,0.633,1.043,1.515,1.044,2.805l0.011,8.419
		L20.944,60.812z M20.801,55.17l-0.792,0.001c-0.52,0.001-0.905,0.046-1.244,0.364c-0.293,0.272-0.474,1.23-0.473,1.705
		c0.001,1.063,0.432,1.651,1.247,1.65c0.724-0.001,1.267-0.613,1.265-1.586L20.801,55.17z"/>
	<path fill="#FFFFFF" d="M55.01,59.684c-0.7,0.974-1.673,1.27-2.827,1.271c-1.154,0.002-2.127-0.292-2.83-1.264
		c-0.748-1.04-0.84-2.873-0.843-4.887c-0.002-2.014,0.086-3.848,0.831-4.89c0.7-0.974,1.673-1.247,2.827-1.248
		c1.154-0.001,2.128,0.269,2.83,1.242c0.748,1.04,0.841,2.873,0.843,4.887C55.844,56.809,55.755,58.642,55.01,59.684 M53.099,51.29
		c-0.205-0.316-0.566-0.497-0.929-0.496c-0.362,0.001-0.724,0.182-0.927,0.499c-0.316,0.544-0.337,1.743-0.335,3.508
		c0.002,1.765,0.026,2.988,0.344,3.53c0.204,0.317,0.566,0.475,0.928,0.474c0.362,0,0.724-0.159,0.928-0.476
		c0.316-0.544,0.337-1.765,0.335-3.531C53.44,53.032,53.416,51.833,53.099,51.29"/>
	<polygon fill="#FFFFFF" points="46.613,60.777 44.169,60.781 44.151,46.488 46.594,45.752 	"/>
	<path fill="#FFFFFF" d="M39.488,49.577v0.055c-0.181-0.249-0.454-0.497-0.703-0.633c-0.362-0.203-0.792-0.316-1.222-0.315
		c-1.018,0.001-1.516,0.251-2.058,0.885c-0.746,0.884-0.948,2.264-0.945,4.821c0.003,2.558,0.209,3.915,0.957,4.797
		c0.544,0.634,1.064,0.881,2.06,0.88c0.475-0.001,0.837-0.069,1.154-0.273c0.226-0.136,0.475-0.386,0.678-0.657l0.002,2.037
		c0.001,0.747-0.089,1.177-0.337,1.471c-0.204,0.227-0.497,0.386-0.86,0.386c-0.362,0.001-0.656-0.136-0.86-0.361
		c-0.241-0.284-0.332-0.655-0.338-1.088l-2.323,0.691c0.111,0.708,0.401,1.351,0.944,1.893c0.657,0.633,1.585,0.926,2.581,0.924
		c0.973-0.001,1.968-0.364,2.578-0.976c0.655-0.657,1.017-1.562,1.015-3.101l-0.015-12.13L39.488,49.577z M39.406,56.558
		c0.001,0.498-0.112,0.838-0.338,1.087c-0.203,0.227-0.52,0.34-0.86,0.34c-0.43,0.001-0.656-0.179-0.883-0.474
		c-0.362-0.475-0.364-1.629-0.366-3.1c-0.002-1.471-0.003-2.625,0.358-3.101c0.226-0.294,0.452-0.498,0.882-0.499
		c0.339,0,0.634,0.112,0.838,0.338c0.226,0.249,0.363,0.611,0.364,1.109L39.406,56.558z"/>
	<path fill="#FFFFFF" d="M31.834,49.619c-0.544-0.633-1.201-0.926-2.174-0.925c-0.43,0.001-0.86,0.115-1.199,0.318
		c-0.294,0.159-0.588,0.476-0.791,0.748l-0.001-0.883h-0.007l-2.301,0.684l0.014,11.245l2.399-0.003l-0.01-8.577
		c-0.001-0.928,0.519-1.381,1.175-1.382c0.656-0.001,1.177,0.451,1.178,1.379l0.011,8.577l2.399-0.003l-0.011-8.6
		C32.514,50.818,32.309,50.162,31.834,49.619"/>
</g>
</svg>
